<?xml version="1.0" encoding="utf-8"?>
<!-- Generator: Adobe Illustrator 19.0.0, SVG Export Plug-In . SVG Version: 6.00 Build 0)  -->
<svg version="1.1" id="Layer_1" xmlns="http://www.w3.org/2000/svg" xmlns:xlink="http://www.w3.org/1999/xlink" x="0px" y="0px"
	 viewBox="0 0 1000 500" style="enable-background:new 0 0 1000 500;" xml:space="preserve">
<style type="text/css">
	.st0{fill:#005C76;}
</style>
<g>
	<path class="st0" d="M74.2,228.3h0.5l12.4,35.5H61.9L74.2,228.3 M89.3,309.8h47.1v-5.4c-9.1-1.1-11.9-1.8-17.8-18.1
		c-6.5-17.4-14.1-38-21.3-58.3l-11.3-32l-8.5,2.3l-34.8,88.5c-6,15.5-8.3,16.3-18.5,17.6v5.4h38.8v-5.4l-4.3-0.5
		c-8-0.9-8.3-2.7-5.7-11.4c2.2-7.5,4.5-15,6.6-20H90c2.6,6.3,5.9,15.3,8.1,21c2.9,7.4,2,9.3-4.3,10.2l-4.5,0.6V309.8z"/>
	<path class="st0" d="M185.7,249.9c0-6.3-0.8-7.4-5.3-8.1l-5.3-0.8v-5c8.6-0.4,23.6-2.1,31.7-3.2v58.5c0,7.1,0.7,9.1,6.2,9.1h5.4
		v5.3c-10.3,1.5-21.3,3.9-31.2,6.4l-1.4-1.2v-11c-3.2,2.4-6.1,4.6-9.9,6.9c-5.3,3.2-9.7,5-15.1,5c-14.4,0-22.3-9.5-22.3-22.8v-39
		c0-6.3-0.8-7.4-5.3-8.1l-4.7-0.8v-5c7.9-0.4,22-2.1,31-3.2v51.9c0,10.1,5.1,14.1,11.6,14.1c4.8,0,9.6-2.3,14.6-6.6V249.9"/>
	<path class="st0" d="M249.2,284.4c0,13.2,6.5,15.7,9.6,15.7c2.7,0,5.7-0.9,9-2.8l2.4,5.2l-14.8,7.5c-2.7,1.3-5.3,1.8-6.5,1.8
		c-13.3,0-20.7-5.8-20.7-21.1v-47.8h-11l-1.2-2.2l5.5-6.6h6.7v-10.5l18-13.6l3,1.5v22.6h17c2.2,1.9,1.9,7.4-1.2,8.8h-15.8V284.4"/>
	<path class="st0" d="M304.9,243.1c5.8-5.7,14.5-11,23.5-11c15.6,0,24.3,9.8,24.3,26V293c0,9.6,0.9,10.3,10.4,11.5v5.4h-40.4v-5.4
		c8.3-1.1,9-1.8,9-11.5v-33c0-10.6-6-15.2-13.1-15.2c-4.7,0-9.7,1.7-13.6,5.7V293c0,9.6,0.8,10.3,8,11.5v5.4h-41.4v-5.4
		c11.5-1.1,12.4-1.8,12.4-11.5v-83.1c0-10.2-0.3-10.4-11.2-11.1v-5c7.6-1.2,20.9-3.6,32.3-6.1V243.1"/>
	<path class="st0" d="M389.7,266.9c0-18.6,7.3-27.8,14.3-27.8c11,0,17.6,13.3,17.6,36.3c0,24.9-7.7,29.2-14,29.2
		C396.6,304.6,389.7,288.5,389.7,266.9 M406.6,232.1c-19.3,0-40.7,14.5-40.7,41.8c0,18.4,13.3,37.9,39.8,37.9
		c19.8,0,39.7-13.5,39.7-41.5C445.3,250.2,430.5,232.1,406.6,232.1z"/>
	<path class="st0" d="M482.2,293c0,9.6,0.8,10.3,14.1,11.5v5.4h-46.9v-5.4c10.8-1.1,11.7-1.8,11.7-11.5v-38.2
		c0-10.5-0.3-10.6-11.4-11.9v-4.6c10.1-1.4,21.1-3.7,32.5-6.2v17.1h0.3c2.2-3.5,4.8-7.6,8-11c3.3-3.5,7.1-6.1,11.4-6.1
		c6.5,0,11.6,4.8,11.6,10.5c0,5.7-3.8,10.7-8.1,12.2c-2.2,0.9-3.9,0.3-5.3-0.7c-2.9-2.3-5.9-3.6-8.6-3.6c-2.9,0-6.4,1.3-9.3,8.5V293
		"/>
	<path class="st0" d="M527.1,254.8c0-10.5-0.3-10.6-11.3-11.9v-4.6c10.1-1.4,21.5-3.7,32.4-6.2v60.7c0,9.8,0.9,10.5,11.8,11.7v5.4
		h-44.7v-5.4c11-1.1,11.9-1.8,11.9-11.7V254.8 M548.7,204.9c0,7-5.5,12.4-12.5,12.4c-6.7,0-12.5-5.4-12.5-12.4
		c0-7,5.8-12.5,12.5-12.5C543.1,192.4,548.7,197.9,548.7,204.9z"/>
	<path class="st0" d="M628.4,234l1.5,2.5l-39.6,66H604c11.8,0,16.5-2.2,22.2-11.9l2.5-4.3l6.2,2.3c-3.1,8.6-5.3,14.9-7.9,21.2h-62.1
		l-1.7-2.5l40.8-65.9h-12.1c-11.4,0-14.4,2.6-18.4,11.1l-2.4,5.3l-6.2-2.3c2-6.5,4.8-17.4,6.3-25h3.8c0.9,2.5,2.7,3.6,9.3,3.6H628.4
		"/>
	<path class="st0" d="M654.8,260.6c1-11.7,7.4-20.6,13.7-20.6c6.6,0,12,9,12,16c0,3.3-0.7,4.1-3.2,4.1L654.8,260.6 M697.5,289.8
		c-6.9,4.7-12.3,6.7-18.6,6.7c-13.1,0-24.8-8.9-24.8-28.2c17.1-0.7,40-2.3,42.4-2.8c3.4-0.7,3.9-1,3.9-7.5
		c0-13.3-11.9-25.9-26.8-25.9c-21,0-39.5,18.5-39.5,43.3c0,19.3,13.4,36.3,36.6,36.3c6,0,19.5-3.5,29.3-18.5L697.5,289.8z"/>
	<path class="st0" d="M706,298.2c0-7.8,5.7-13.5,13-13.5c7.5,0,13.2,5.7,13.2,13.5c0,8-5.7,13.5-13.2,13.5
		C711.6,311.7,706,306.3,706,298.2"/>
	<path class="st0" d="M843.3,311h-10.5l-68.4-84H764v35.7c0,18.1,1,27.6,1.7,33c0.9,6,5.2,8.2,16.6,8.7v5.4h-42.7v-5.4
		c8.6-0.3,12.7-2.7,13.6-8.7c0.8-5.4,1.8-14.9,1.8-33v-34.2c0-11,0-15.2-3.1-19.3c-3.3-4.2-7.6-5.3-14.6-5.8V198h29.9l66.6,77.5h0.4
		v-30.4c0-18.1-1-27.5-1.7-33c-0.9-6.1-5.2-8.2-16.6-8.8V198h42.7v5.4c-8.7,0.3-12.7,2.7-13.6,8.8c-0.7,5.4-1.7,14.9-1.7,33V311"/>
	<path class="st0" d="M869.9,260.6c1-11.7,7.4-20.6,13.7-20.6c6.5,0,12,9,12,16c0,3.3-0.6,4.1-3.3,4.1L869.9,260.6 M912.6,289.8
		c-6.9,4.7-12.3,6.7-18.7,6.7c-13,0-24.7-8.9-24.7-28.2c17-0.7,39.9-2.3,42.4-2.8c3.4-0.7,3.9-1,3.9-7.5c0-13.3-11.8-25.9-26.8-25.9
		c-21,0-39.6,18.5-39.6,43.3c0,19.3,13.4,36.3,36.6,36.3c6.1,0,19.5-3.5,29.3-18.5L912.6,289.8z"/>
	<path class="st0" d="M949,284.4c0,13.2,6.5,15.7,9.7,15.7c2.7,0,5.6-0.9,8.9-2.8l2.4,5.2l-14.8,7.5c-2.7,1.3-5.3,1.8-6.5,1.8
		c-13.2,0-20.7-5.8-20.7-21.1v-47.8h-10.9l-1.2-2.2l5.5-6.6h6.6v-10.5L946,210l3,1.5v22.6h17c2.2,1.9,1.8,7.4-1.2,8.8H949V284.4"/>
	<path class="st0" d="M969.5,227.8c-1.5,0-2.9-0.4-4.2-1.1c-1.3-0.7-2.4-1.8-3.2-3.1c-0.8-1.4-1.2-2.8-1.2-4.4c0-1.5,0.4-3,1.2-4.3
		c0.8-1.3,1.8-2.4,3.2-3.2c1.3-0.8,2.8-1.2,4.3-1.2c1.5,0,3,0.4,4.3,1.2c1.4,0.8,2.4,1.8,3.2,3.2c0.8,1.4,1.2,2.8,1.2,4.3
		c0,1.6-0.4,3-1.2,4.4c-0.8,1.3-1.9,2.4-3.2,3.1C972.4,227.4,971,227.8,969.5,227.8 M969.5,226.5c1.3,0,2.5-0.3,3.6-0.9
		c1.1-0.6,2.1-1.5,2.7-2.7c0.7-1.1,1-2.4,1-3.7c0-1.3-0.3-2.5-1-3.7c-0.7-1.1-1.6-2-2.7-2.7c-1.2-0.7-2.4-1-3.7-1
		c-1.3,0-2.5,0.3-3.6,1c-1.2,0.6-2.1,1.5-2.7,2.7c-0.6,1.1-1,2.4-1,3.7c0,1.3,0.3,2.6,1,3.7c0.7,1.1,1.6,2,2.7,2.7
		C967,226.2,968.2,226.5,969.5,226.5z M967.8,224.3h-1.7v-10.5h3.4c0.8,0,1.4,0.1,1.9,0.4c0.4,0.2,0.7,0.6,1,1
		c0.2,0.5,0.4,0.9,0.4,1.5c0,0.6-0.2,1.2-0.5,1.8c-0.4,0.6-0.9,1-1.5,1.3c0.3,0.2,0.7,0.7,1.2,1.5l1.6,3.1h-1.9l-1.4-2.6l-0.3-0.7
		c-0.4-0.7-0.7-1-0.9-1h-1.2V224.3z M967.8,218.7h1.1c0.8,0,1.3-0.2,1.6-0.6c0.3-0.4,0.4-0.9,0.4-1.4c0-0.3,0-0.6-0.2-0.8
		c-0.1-0.2-0.3-0.4-0.5-0.6c-0.2-0.2-0.6-0.2-1.2-0.2h-1.2V218.7z"/>
</g>
</svg>
