<?xml version="1.0" encoding="utf-8"?>
<!-- Generator: Adobe Illustrator 18.1.0, SVG Export Plug-In . SVG Version: 6.00 Build 0)  -->
<svg version="1.1" id="Layer_1" xmlns="http://www.w3.org/2000/svg" xmlns:xlink="http://www.w3.org/1999/xlink" x="0px" y="0px"
	 viewBox="12 134 1000 500" enable-background="new 12 134 1000 500" xml:space="preserve">
<circle fill="#B9B9BC" cx="511.6" cy="276.7" r="43.8"/>
<g id="meanicons_x5F_60">
	<g>
		<path fill="#B8B8BB" d="M352.1,560.5c5.3,0,9.6-4.3,9.6-9.6V386.1c0-5.3-4.3-9.6-9.6-9.6h-36.7c-5.4,0-9.6,4.3-9.6,9.6v164.7
			c0,5.3,4.3,9.6,9.6,9.6h36.7V560.5z"/>
		<path fill="#E5E5E5" d="M742.3,576.5H281.5c-5.3,0-9.6,4.3-9.6,9.6V611c0,5.3,4.3,9.6,9.6,9.6h460.8c5.3,0,9.6-4.2,9.6-9.6V586
			C751.9,580.7,747.6,576.5,742.3,576.5z"/>
		<path fill="#B8B8BB" d="M470.9,560.5c5.3,0,9.6-4.3,9.6-9.6V386.1c0-5.3-4.3-9.6-9.6-9.6h-36.8c-5.3,0-9.5,4.3-9.5,9.6v164.7
			c0,5.3,4.3,9.6,9.5,9.6h36.8V560.5z"/>
		<path fill="#B8B8BB" d="M708.6,560.5c5.3,0,9.6-4.3,9.6-9.6V386.1c0-5.3-4.3-9.6-9.6-9.6h-36.8c-5.3,0-9.5,4.3-9.5,9.6v164.7
			c0,5.3,4.3,9.6,9.5,9.6h36.8V560.5z"/>
		<path fill="#E5E5E5" d="M745.2,322.7L548.8,160.1c-20.3-16.8-53.5-16.8-73.7,0L278.7,322.7c-20.4,16.8-15.4,30.5,11,30.5h444.6
			C760.6,353.2,765.6,339.6,745.2,322.7z M511.9,313.7c-20.6,0-37.2-16.7-37.2-37.3c0-20.5,16.7-37.2,37.2-37.2
			c20.6,0,37.2,16.7,37.2,37.2C549.3,296.9,532.6,313.7,511.9,313.7z"/>
		<path fill="#B8B8BB" d="M589.8,560.5c5.3,0,9.6-4.3,9.6-9.6V386.1c0-5.3-4.3-9.6-9.6-9.6H553c-5.3,0-9.6,4.3-9.6,9.6v164.7
			c0,5.3,4.3,9.6,9.6,9.6h36.8V560.5z"/>
	</g>
</g>
</svg>
