<?xml version="1.0" encoding="utf-8"?>
<!-- Generator: Adobe Illustrator 18.1.0, SVG Export Plug-In . SVG Version: 6.00 Build 0)  -->
<svg version="1.1" id="Layer_1" xmlns="http://www.w3.org/2000/svg" xmlns:xlink="http://www.w3.org/1999/xlink" x="0px" y="0px"
	 viewBox="0 0 1000 500" enable-background="new 0 0 1000 500" xml:space="preserve">
<g>
	<defs>
		<rect id="SVGID_1_" x="-112" y="-146" width="1224" height="792"/>
	</defs>
	<clipPath id="SVGID_2_">
		<use xlink:href="#SVGID_1_"  overflow="visible"/>
	</clipPath>
	<path clip-path="url(#SVGID_2_)" fill="#3E3C42" d="M27.2,310.9v-16.5h13v-79.6h-13v-16.5h52c23.9,0,38.5,11.1,38.5,30.3
		c0,12.6-7.4,20.4-16.7,24.1c13.4,3.7,22.9,13.2,22.9,26.2c0,20.6-15.9,32-41.9,32H27.2z M58.1,214.8v30.7h19.4
		c14.6,0,22.1-5.4,22.1-15.3c0-10.1-7.8-15.3-22.3-15.3H58.1z M58.1,294.4h22.1c17.1,0,25.6-5.6,25.6-16.5c0-10.7-9.1-16.5-27-16.5
		H58.1V294.4z"/>
	<path clip-path="url(#SVGID_2_)" fill="#3E3C42" d="M218.3,252.2c-1.9-6.6-6.8-10.5-13.2-10.5c-15,0-29.1,11.1-29.1,31.3v21.4h28.7
		v16.5h-64.1v-16.5h18.3v-49.7h-14.4v-16.5h31.3v14c5.2-9.7,15.9-16.7,30.1-16.7c15.9,0,25.8,9.1,28.7,22.1L218.3,252.2z"/>
	<path clip-path="url(#SVGID_2_)" fill="#3E3C42" d="M305.7,262.7v-4.7c0-11.7-9.3-16.5-19.4-16.5c-9.5,0-17.7,3.9-24.3,9.9
		l-11.3-12.2c7.8-7.2,18.8-13.8,35.5-13.8c20.8,0,36.9,11.1,36.9,32v36.9h12v16.5h-29.5v-8.7c-4.5,7.2-16.5,11.5-28.4,11.5
		c-17.1,0-31.9-8.7-31.9-26c0-20.4,20-28.2,38.3-28.2C292.7,259.4,300.1,261.2,305.7,262.7 M305.7,277.5c-5.4-1.9-13.6-3.5-21.2-3.5
		c-10.9,0-21.4,3.5-21.4,13.4c0,7.4,6.6,10.9,15.7,10.9c12.6,0,26.8-6.8,26.8-18.4V277.5z"/>
	<path clip-path="url(#SVGID_2_)" fill="#3E3C42" d="M438.9,294.4v16.5h-83.5v-16.5H390v-49.7h-26.4v-16.5h43.5v66.2H438.9z
		 M407.1,211.6h-19.2v-25.2h19.2V211.6z"/>
	<path clip-path="url(#SVGID_2_)" fill="#3E3C42" d="M459.5,294.4h12.6v-49.7h-11.8v-16.5H489v10.7c5-8.2,15.5-13.4,28.4-13.4
		c18.5,0,31.7,11.7,31.7,30.5v38.5h12.6v16.5h-42.9v-16.5h13.2v-33.8c0-14.4-8.7-18.4-16.7-18.4c-13,0-26,9.7-26,24.7v27.6h13.2
		v16.5h-42.9V294.4z"/>
	<path clip-path="url(#SVGID_2_)" fill="#3E3C42" d="M585.2,244.7h-21.6v-16.5h21.6v-29.9h17.1v29.9h40.2v16.5h-40.2v34.8
		c0,12.8,8.9,18.1,19.2,18.1c9.7,0,17.9-5.4,23.9-11.5l11.5,11.8c-7.6,8.2-19.2,15.7-35.3,15.7c-20.8,0-36.3-11.5-36.3-33.6V244.7z"
		/>
	<path clip-path="url(#SVGID_2_)" fill="#3E3C42" d="M750,252.2c-1.9-6.6-6.8-10.5-13.2-10.5c-15,0-29.1,11.1-29.1,31.3v21.4h28.7
		v16.5h-64.1v-16.5h18.3v-49.7h-14.4v-16.5h31.3v14c5.2-9.7,15.9-16.7,30.1-16.7c15.9,0,25.8,9.1,28.7,22.1L750,252.2z"/>
	<path clip-path="url(#SVGID_2_)" fill="#3E3C42" d="M865,298.3c-8.5,8.9-23.7,15.3-40.6,15.3c-27.8,0-47.2-18.6-47.2-44.1
		c0-25.4,18.8-44.1,45.1-44.1c26,0,44.3,20,44.3,47.2v2.9h-71.3c2.9,13.8,14.4,22.1,29.3,22.1c12.4,0,23.1-5,28.9-11.5L865,298.3z
		 M796.1,261H847c-2.5-11.8-13-19.8-24.7-19.8C809.1,241.2,799,249.3,796.1,261"/>
	<path clip-path="url(#SVGID_2_)" fill="#3E3C42" d="M971.3,298.3c-8.5,8.9-23.7,15.3-40.6,15.3c-27.8,0-47.2-18.6-47.2-44.1
		c0-25.4,18.8-44.1,45.1-44.1c26,0,44.3,20,44.3,47.2v2.9h-71.3c2.9,13.8,14.4,22.1,29.3,22.1c12.4,0,23.1-5,28.9-11.5L971.3,298.3z
		 M902.3,261h50.9c-2.5-11.8-13-19.8-24.7-19.8C915.3,241.2,905.2,249.3,902.3,261"/>
</g>
</svg>
