<?xml version="1.0" encoding="utf-8"?>
<!-- Generator: Adobe Illustrator 18.1.0, SVG Export Plug-In . SVG Version: 6.00 Build 0)  -->
<svg version="1.1" id="Capa_1" xmlns="http://www.w3.org/2000/svg" xmlns:xlink="http://www.w3.org/1999/xlink" x="0px" y="0px"
	 viewBox="12 134 1000 500" enable-background="new 12 134 1000 500" xml:space="preserve">
<g>
	<path fill="#679C28" d="M161,542.5h579.5V252.7H161V542.5z M187.4,279h526.8v237.1H187.4V279z"/>
	<rect x="187.4" y="200" fill="#679C28" width="526.8" height="26.3"/>
	<rect x="213.8" y="147.4" fill="#679C28" width="474.2" height="26.3"/>
	<rect x="187.4" y="279" fill="#B1D386" width="526.8" height="237.1"/>
	<path fill="#679C28" d="M466.7,387.5c-4.6-2.9-10.7-6-17.9-9.3c-8.4-3.8-13.9-7-16.7-9.7c-2.8-2.8-4.2-6.3-4.2-10.6
		c0-4.6,1.8-8.5,5.2-11.6c3.4-3.1,7.8-4.6,13-4.6c8.5,0,15.4,4.8,20.6,14.4l17.5-9.7c-4.1-7.3-8.3-12.7-12.8-16.1
		c-4.4-3.5-10.3-5.9-17.2-7v-17.6h-15.7v17.6c-4.9,1.2-9.2,3-12.9,5.2c-3.8,2.2-7,4.9-9.6,7.8c-2.7,3.1-4.5,6.4-6,10.1
		c-1.3,3.8-2,7.7-2,12c0,9.1,2.9,16.9,8.7,23.3c3.6,4.3,11.3,9.1,22.8,14.4c5.6,2.5,10.3,5,13.8,7.2s6.3,4.1,8.2,5.9
		c3.6,3.5,5.4,8.3,5.4,14.3c0,6.6-2.2,12-6.5,16.1c-4.4,4.2-9.9,6.3-16.5,6.3c-6.7,0-12.2-1.9-16.1-5.5c-3.9-3.9-7.2-10.4-9.8-19.5
		l-19.7,4.1c3,12.8,7.5,22.3,13.6,28.5c6.1,6.1,15,10.2,26.8,12.2v18h15.7v-18.5c10.1-2.7,18.1-7.8,24.2-15.6
		c6.1-7.7,9.2-16.7,9.2-26.9c0-10.3-3.4-19.1-10.2-26.4C474.9,393.1,471.4,390.4,466.7,387.5z"/>
</g>
<g>
	<path fill="#FFDA7C" d="M768.8,610.5H659.6c-51.7,0-94.1-42.3-94.1-94.1l0,0c0-51.7,42.3-94.1,94.1-94.1h109.2
		c51.7,0,94.1,42.3,94.1,94.1l0,0C863,568.1,820.6,610.5,768.8,610.5z"/>
	<g>
		<path fill="#B58A1E" d="M758.5,411.7c-7,0-13.8,0.8-20.6,2.1c-6.7-1.3-13.8-2.1-20.9-2.1c-7.7,0-15.4,0.9-22.7,2.5l0.1,0.6
			c-7.8-1.9-16-3.1-24.5-3.1c-57.6,0-104.5,46.9-104.5,104.5c0,57.6,46.9,104.5,104.5,104.5c8.1,0,15.9-1,23.4-2.8
			c7.7,1.8,15.7,2.8,23.7,2.8c7.3,0,14.4-0.8,21.1-2.1c6.6,1.3,13.5,2.1,20.3,2.1c57.6,0,104.5-46.9,104.5-104.5
			C863,458.6,816.1,411.7,758.5,411.7z M575.6,516.1c0-52.1,42.3-94.4,94.4-94.4s94.4,42.3,94.4,94.4c0,52.1-42.3,94.4-94.4,94.4
			S575.6,568.2,575.6,516.1z M714.6,610.4c35.3-16.8,59.7-52.6,59.7-94.2s-24.5-77.5-59.8-94.2c0.8,0,1.5-0.1,2.4-0.1
			c52.1,0,94.4,42.3,94.4,94.4c0,44.9-31.6,82.5-73.7,92.1c-0.4-0.1-0.9-0.1-1.3-0.2l-0.1,0.7c-6.2,1.3-12.6,2-19.2,2
			C716.3,610.5,715.4,610.4,714.6,610.4z M761.8,610.3c35.2-16.8,59.7-52.6,59.7-94.2s-24.4-77.4-59.7-94.2
			c50.5,1.8,91.1,43.3,91.1,94.2C852.9,567,812.3,608.6,761.8,610.3z"/>
	</g>
	<g>
		<path fill="#B58A1E" d="M669.4,508.9c-13.8-5.9-18.7-10.1-18.7-18.1c0-6.5,3.5-13.8,15.8-13.8c10.2,0,16.7,3.6,20,5.5l4-10.5
			c-4.8-2.8-11.3-5.3-20.7-5.5v-15.5h-10.1v15.9c-14.5,2.4-23.9,12.4-23.9,25.5c0,13.8,10.1,21.3,26.2,27.6
			c11.7,4.8,17,10.2,17,18.9c0,9.1-6.6,15.6-17.9,15.6c-8.8,0-17.2-3.2-22.8-6.9l-3.8,10.6c5.5,4,14.9,6.9,24.2,7v16.1H669v-16.6
			c16.4-2.5,25.1-14.4,25.1-27.1C694.1,523.7,685.9,515.6,669.4,508.9z"/>
	</g>
</g>
</svg>
