<?xml version="1.0" encoding="utf-8"?>
<!-- Generator: Adobe Illustrator 18.1.0, SVG Export Plug-In . SVG Version: 6.00 Build 0)  -->
<svg version="1.1" id="Layer_1" xmlns="http://www.w3.org/2000/svg" xmlns:xlink="http://www.w3.org/1999/xlink" x="0px" y="0px"
	 viewBox="12 134 1000 500" enable-background="new 12 134 1000 500" xml:space="preserve">
<path fill="#F5E2DA" d="M671.9,494.6H320c-59.6,0-109-48-109-109V262c0-59.6,48-109,109-109h351.8c59.6,0,109,48,109,109v123.6
	C779.5,446.7,731.5,494.6,671.9,494.6z"/>
<path fill="#BA2F2B" d="M272.1,254.8H496v36.3H272.1V254.8z M644.3,480.1c4.4-5.8,10.2-11.6,17.4-17.4H244.4V219.9h504.5v130.8
	l32-17.4V153H211v341.7h423.1L644.3,480.1L644.3,480.1z M272.1,318.7h407.1v36.3H272.1C272.1,353.6,272.1,318.7,272.1,318.7z
	 M796.9,353.6l-87.2,46.5l-20.4,65.4l18.9,13.1l45.1-68.3c-2.9-4.4-2.9-8.7,0-13.1c2.9-5.8,10.2-7.3,16-2.9c5.8,2.9,7.3,10.2,2.9,16
	c-2.9,4.4-7.3,5.8-11.6,4.4L715.5,483l20.4,13.1l52.3-43.6L796.9,353.6L796.9,353.6L796.9,353.6z M653,500.5
	c-7.3,10.2-50.9,77.1-50.9,77.1l62.5,42.2c0,0,43.6-66.9,50.9-77.1c7.3-10.2,11.6-37.8,11.6-37.8l-43.6-29.1
	C685,474.3,660.2,488.8,653,500.5L653,500.5z"/>
</svg>
