<?xml version="1.0" encoding="utf-8"?>
<!-- Generator: Adobe Illustrator 18.0.0, SVG Export Plug-In . SVG Version: 6.00 Build 0)  -->
<!DOCTYPE svg PUBLIC "-//W3C//DTD SVG 1.1//EN" "http://www.w3.org/Graphics/SVG/1.1/DTD/svg11.dtd">
<svg version="1.1" id="Capa_1" xmlns="http://www.w3.org/2000/svg" xmlns:xlink="http://www.w3.org/1999/xlink" x="0px" y="0px"
	 viewBox="0 0 1024 768" enable-background="new 0 0 1024 768" xml:space="preserve">
<g>
	<path fill="#33333B" d="M261.4,128.4v582.2c0,31.7,25.7,57.4,57.4,57.4h386.3c31.7,0,57.4-25.7,57.4-57.4V128.4
		c0-31.7-25.7-57.4-57.4-57.4h-49.3V24.6c0-13.5-11.1-24.6-24.6-24.6H393c-13.5,0-24.6,11.1-24.6,24.6v46.2H319
		C287.1,70.9,261.4,96.6,261.4,128.4z"/>
	<path fill="#BDC3C7" d="M680.5,576.8v-42.4c0-13.7-11.1-24.6-24.6-24.6h-39.8c-13.5,0-24.6,11.1-24.6,24.6v42.4
		c0,13.7,11.1,24.6,24.6,24.6h39.8C669.5,601.4,680.5,590.4,680.5,576.8z"/>
	<path fill="#BDC3C7" d="M556.6,452.8v-42.4c0-13.7-11.1-24.6-24.6-24.6h-39.8c-13.5,0-24.6,11.1-24.6,24.6v42.4
		c0,13.7,11.1,24.6,24.6,24.6h39.9C545.6,477.3,556.6,466.3,556.6,452.8z"/>
	<path fill="#2ECC71" d="M591.5,700.7c0,13.7,11.1,24.6,24.6,24.6h39.8c13.5,0,24.6-11.1,24.6-24.6v-42.4
		c0-13.7-11.1-24.6-24.6-24.6h-39.8c-13.5,0-24.6,11.1-24.6,24.6V700.7z"/>
	<polygon fill="#2980B9" points="606.6,49.3 577.8,49.3 577.8,70.9 577.8,128.4 577.8,182.9 606.6,182.9 606.6,128.4 606.6,70.9 	
		"/>
	<polygon fill="#3498DB" points="508,49.3 417.6,49.3 417.6,70.9 417.6,128.4 417.6,182.9 508,182.9 508,128.4 508,70.9 	"/>
	<path fill="#BDC3C7" d="M680.5,452.8v-42.4c0-13.7-11.1-24.6-24.6-24.6h-39.8c-13.5,0-24.6,11.1-24.6,24.6v42.4
		c0,13.7,11.1,24.6,24.6,24.6h39.8C669.5,477.3,680.5,466.3,680.5,452.8z"/>
	<path fill="#BDC3C7" d="M432.7,576.8v-42.4c0-13.7-11.1-24.6-24.6-24.6h-39.8c-13.5,0-24.6,11.1-24.6,24.6v42.4
		c0,13.7,11.1,24.6,24.6,24.6h39.8C421.6,601.4,432.7,590.4,432.7,576.8z"/>
	<path fill="#E74C3C" d="M343.7,700.7c0,13.7,11.1,24.6,24.6,24.6h39.8c13.5,0,24.6-11.1,24.6-24.6v-42.4
		c0-13.7-11.1-24.6-24.6-24.6h-39.8c-13.5,0-24.6,11.1-24.6,24.6V700.7z"/>
	<path fill="#BDC3C7" d="M432.7,452.8v-42.4c0-13.7-11.1-24.6-24.6-24.6h-39.8c-13.5,0-24.6,11.1-24.6,24.6v42.4
		c0,13.7,11.1,24.6,24.6,24.6h39.8C421.6,477.3,432.7,466.3,432.7,452.8z"/>
	<path fill="#BDC3C7" d="M556.6,576.8v-42.4c0-13.7-11.1-24.6-24.6-24.6h-39.8c-13.5,0-24.6,11.1-24.6,24.6v42.4
		c0,13.7,11.1,24.6,24.6,24.6h39.9C545.6,601.4,556.6,590.4,556.6,576.8z"/>
	<path fill="#ECF0F1" d="M638.4,350.8c23.2,0,42.2-18.8,42.2-42.2l0,0v-43.5c0-23.2-18.8-42.2-42.2-42.2H385.8
		c-23.2,0-42.2,18.8-42.2,42.2v43.7c0,23.2,18.8,42.2,42.2,42.2h252.8L638.4,350.8L638.4,350.8z"/>
	<path fill="#F1C40F" d="M467.6,700.7c0,13.7,11.1,24.6,24.6,24.6H532c13.5,0,24.6-11.1,24.6-24.6v-42.4c0-13.7-11.1-24.6-24.6-24.6
		h-39.9c-13.5,0-24.6,11.1-24.6,24.6v42.4H467.6z"/>
</g>
</svg>
