<?xml version="1.0" encoding="utf-8"?>
<!-- Generator: Adobe Illustrator 18.1.0, SVG Export Plug-In . SVG Version: 6.00 Build 0)  -->
<svg version="1.1" id="Layer_1" xmlns="http://www.w3.org/2000/svg" xmlns:xlink="http://www.w3.org/1999/xlink" x="0px" y="0px"
	 viewBox="12 134 1000 500" enable-background="new 12 134 1000 500" xml:space="preserve">
<g>
	<g>
		<rect x="207.1" y="172" fill="#4A95C9" width="608.7" height="425.2"/>
		<g>
			<path fill="#384751" d="M797.2,154.6H226.8c-19.7,0-34.8,15.1-34.8,34.8v389.1c0,19.7,15.1,34.8,34.8,34.8h570.4
				c19.7,0,34.8-15.1,34.8-34.8V189.5C832,169.7,815.8,154.6,797.2,154.6z M225.7,173.1h570.4c9.3,0,16.2,6.9,16.2,16.2v73.3H209.3
				v-73.2C210.6,180.1,217.5,173.1,225.7,173.1z M797.2,593.6H226.8c-9.3,0-16.2-6.9-16.2-16.2V318.3h602.9v259.1
				C812.3,586.7,805.4,593.6,797.2,593.6z"/>
		</g>
		<rect x="556.7" y="401.9" fill="#DDDDDD" width="190.5" height="51.2"/>
	</g>
</g>
<g id="visa" display="none">
	<path display="inline" fill="#FCFCFC" d="M407.4,538.2H274c-4.8,0-8.6-3.9-8.6-8.6v-86.1c0-4.8,3.9-8.6,8.6-8.6h133.4
		c4.8,0,8.6,3.9,8.6,8.6v86.1C415.9,534.3,412.1,538.2,407.4,538.2z"/>
	<g display="inline">
		<polygon fill="#005098" points="320.7,504.5 326.9,468.6 336.6,468.6 330.5,504.5 		"/>
		<path fill="#005098" d="M365.9,469.5c-1.9-0.7-5-1.5-8.7-1.5c-9.6,0-16.4,4.9-16.4,11.8c0,5.1,4.9,8.1,8.5,9.8
			c3.7,1.7,5.1,2.8,5.1,4.4c0,2.4-3.1,3.5-5.8,3.5c-3.9,0-6-0.6-9.2-1.9l-1.2-0.6l-1.4,8.1c2.3,1,6.5,1.8,10.9,1.9
			c10.2,0,16.9-4.8,17-12.3c0-4.1-2.6-7.1-8.2-9.8c-3.4-1.7-5.4-2.7-5.4-4.4c0-1.5,1.8-3.1,5.6-3.1c3.2,0,5.4,0.7,7.3,1.4l0.9,0.5
			L365.9,469.5"/>
		<path fill="#005098" d="M390.8,468.6h-7.5c-2.4,0-4.1,0.7-5.1,2.9l-14.5,32.8h10.2c0,0,1.7-4.4,2-5.3c1.1,0,11.1,0,12.5,0
			c0.3,1.2,1.1,5.3,1.1,5.3h9.1L390.8,468.6 M378.8,491.8c0.8-2,3.9-10,3.9-10c-0.1,0.1,0.8-2,1.2-3.4l0.7,3.1c0,0,1.8,8.5,2.3,10.3
			L378.8,491.8L378.8,491.8z"/>
		<path fill="#005098" d="M312.6,468.6L303,493l-1-5c-1.8-5.7-7.3-11.9-13.5-15l8.7,31.3h10.3l15.3-35.7H312.6"/>
		<path fill="#F6A500" d="M294.2,468.6h-15.8l-0.1,0.8c12.3,2.9,20.3,10.1,23.7,18.7l-3.4-16.4C297.9,469.4,296.2,468.7,294.2,468.6
			"/>
	</g>
	<path display="inline" fill="#0A5296" d="M415.9,456.4H265.4v-12.9c0-4.8,3.9-8.6,8.6-8.6h133.4c4.8,0,8.6,3.9,8.6,8.6v12.9H415.9z
		"/>
	<path display="inline" fill="#F4A428" d="M265.4,516.6h150.5v12.9c0,4.8-3.9,8.6-8.6,8.6H274c-4.8,0-8.6-3.9-8.6-8.6V516.6z"/>
</g>
<g id="master">
	<path display="none" fill="#192169" d="M511.1,560.5H258.9c-9,0-16.2-7.3-16.2-16.2V381.6c0-9,7.3-16.2,16.2-16.2h252.2
		c9,0,16.2,7.3,16.2,16.2v162.7C527.3,553.3,520.1,560.5,511.1,560.5z"/>
	<g>
		<path fill="#FF0016" d="M384.9,422.7c-11.2-12.7-27.6-20.8-45.7-20.8c-33.7,0-61,27.3-61,61s27.3,61,61,61
			c18.3,0,34.6-8.1,45.7-20.8c-9.4-10.8-15.2-24.8-15.2-40.3C369.7,447.5,375.5,433.5,384.9,422.7z"/>
		<path fill="#FF0016" d="M384.9,422.7c-9.4,10.8-15.2,24.8-15.2,40.3c0,15.4,5.8,29.5,15.2,40.3c9.4-10.8,15.2-24.8,15.2-40.3
			C400.1,447.5,394.5,433.5,384.9,422.7z"/>
	</g>
	<path fill="#FFA916" d="M430.8,401.9c-18.3,0-34.6,8.1-45.7,20.8c-2.6,2.9-5,6.2-7,9.8h14c2.3,3.9,4,7.9,5.3,12.3h-24.6
		c-1.2,4-2.2,7.9-2.6,12.3h29.7c0.2,2,0.5,4,0.5,6.1c0,2-0.1,4.1-0.3,6.1h-29.8c0.5,4.2,1.4,8.3,2.6,12.3h24.7
		c-1.4,4.3-3.2,8.4-5.4,12.3h-14c2,3.5,4.3,6.8,7,9.8c11.2,12.7,27.6,20.8,45.7,20.8c33.7,0,61-27.3,61-61
		C491.7,429.3,464.5,401.9,430.8,401.9z"/>
</g>
</svg>
