<?xml version="1.0" encoding="utf-8"?>
<!-- Generator: Adobe Illustrator 18.1.0, SVG Export Plug-In . SVG Version: 6.00 Build 0)  -->
<svg version="1.1" id="Layer_1" xmlns:sketch="http://www.bohemiancoding.com/sketch/ns"
	 xmlns="http://www.w3.org/2000/svg" xmlns:xlink="http://www.w3.org/1999/xlink" x="0px" y="0px" viewBox="12 134 1000 500"
	 enable-background="new 12 134 1000 500" xml:space="preserve">
<title></title>
<g id="Page-1">
	<g id="Paypal" transform="translate(-1.000000, 0.000000)">
		<path id="pal" fill="#0079C1" d="M984.1,257.4H956l0,0l0,0c-6.7,0-12.7,4.7-14.7,10.7v0.7c0,0-0.7,2.7-2,8l-38.9,170.9
			c-0.7,4-1.3,6.7-1.3,6.7l0,0c-1.3,6,2,10.7,8.7,11.4l0,0h29.5c6.7,0,12.7-4.7,14.7-10.7v-0.7l42.2-185.6l0,0
			C994.8,262.1,990.8,257.4,984.1,257.4z M839.4,424.9c-4,2.7-8,4.7-12.1,6c-6,2-11.4,3.4-16.1,3.4c-8,0-14.1-1.3-18.1-3.4
			c-4-2-6-6-6-11.4c0-6,1.3-11.4,4.7-14.7c3.4-3.4,8-6.7,13.4-8.7s12.7-3.4,20.8-4.7c7.4-0.7,21.4-2.7,23.5-2.7c2,0,3.4-0.7,2,4
			c-0.7,2-4.7,18.1-6,26.1C844.1,420.9,840.7,424.2,839.4,424.9C839.4,424.9,840.7,424.2,839.4,424.9z M895,309.6
			c-12.1-6.7-30.8-10.1-56.3-10.1c-12.7,0-25.5,0.7-38.2,2.7c-9.4,1.3-10.1,1.3-16.1,2.7c-12.1,2.7-14.1,14.1-14.1,14.1l-4,15.4
			c-2,10.1,3.4,9.4,6,8.7c5.4-1.3,8-3.4,18.8-5.4c10.1-2,20.8-4,29.5-4c12.7,0,22.1,1.3,28.8,4c6.7,2.7,9.4,7.4,9.4,14.1
			c0,1.3,0,3.4-0.7,4c-0.7,1.3-1.3,2.7-4.7,2.7c-18.1,1.3-30.8,2.7-46.2,4.7c-15.4,2-28.8,6-40.2,10.7
			c-12.1,5.4-20.8,12.1-26.8,20.8c-6,8.7-8.7,19.4-8.7,32.2c0,12.1,4.7,21.4,12.7,28.8c8.7,7.4,19.4,11.4,33.5,11.4
			c8.7,0,14.7-0.7,19.4-2c4.7-1.3,10.1-2.7,15.4-5.4c4-1.3,8-4,12.7-6.7c4.7-2.7,8-5.4,12.1-7.4l0,0l-1.3,4.7l0,0l0,0
			c-1.3,6,2.7,10.7,8.7,11.4l0,0h0.7l0,0c4,0,18.1,0,24.1,0h4.7c0,0,0,0,0.7,0c6-0.7,12.1-5.4,13.4-11.4l22.8-96.5
			c0.7-2,0.7-4.7,1.3-8c0-3.4,0.7-5.4,0.7-7.4C913.1,326.4,907.1,316.3,895,309.6L895,309.6z M757,287.5c-4-7.4-10.1-13.4-17.4-18.1
			c-7.4-4.7-16.8-8-27.5-10.1c-10.7-2-22.8-2.7-36.9-2.7h-65.7c-6.7,0-13.4,5.4-14.7,11.4l-44.2,187.6c-1.3,6.7,2.7,11.4,9.4,11.4
			h31.5c6.7,0,13.4-5.4,15.4-11.4l10.7-45.6c1.3-6.7,8-11.4,15.4-11.4h8.7c38.2,0,68.3-7.4,89.8-22.8c21.4-15.4,32.2-35.5,32.2-61
			C763,304.3,761,294.9,757,287.5z M688.6,349.2c-9.4,6.7-22.8,10.1-39.5,10.1h-8c-6.7,0-11.4-5.4-9.4-11.4l9.4-39.5
			c1.3-6,8-11.4,14.7-11.4h10.1c12.1,0,20.8,2,27.5,6c6,4,9.4,10.1,9.4,18.1C703.4,332.4,698.7,342.5,688.6,349.2"/>
		<path id="pay" fill="#00457C" d="M535.2,300.2c-6,0-14.1,4.7-17.4,10.7c0,0-40.2,67-44.2,73.7c-2,3.4-4,1.3-4.7,0
			c0-1.3-12.7-73.7-12.7-73.7c-1.3-6-7.4-10.7-15.4-10.7h-24.8c-6,0-10.1,4.7-8.7,10.7c0,0,19.4,105.9,22.8,131.3
			c2,14.1,0,16.1,0,16.1l-24.8,42.2c-3.4,6-1.3,10.7,4.7,10.7h28.8c6,0,14.1-4.7,17.4-10.7l111.2-184.3c0,0,10.7-16.1,0.7-15.4
			C562,300.2,535.2,300.2,535.2,300.2z M326.2,424.9c-4,2.7-8,4.7-12.1,6c-6,2-11.4,3.4-16.8,3.4c-8,0-14.1-1.3-18.1-3.4
			c-4-2-6-6-6-11.4c0-6,1.3-11.4,4.7-14.7s7.4-6.7,13.4-8.7c6-2,12.7-3.4,20.8-4.7c7.4-0.7,21.4-2.7,23.5-2.7s2.7-0.7,2,4
			c-0.7,2-4.7,18.1-6,26.1C330.8,420.9,327.5,424.2,326.2,424.9C326.2,424.9,327.5,424.2,326.2,424.9z M381.8,309.6
			c-12.1-6.7-30.8-10.1-56.3-10.1c-12.7,0-25.5,0.7-38.2,2.7c-9.4,1.3-10.1,1.3-16.1,2.7c-12.1,2.7-14.1,14.1-14.1,14.1l-4,15.4
			c-2,10.1,3.4,9.4,6,8.7c5.4-1.3,8-3.4,18.8-5.4c10.1-2,20.8-4,29.5-4c12.7,0,22.1,1.3,28.8,4c6.7,2.7,9.4,7.4,9.4,14.1
			c0,1.3,0,3.4-0.7,4c-0.7,1.3-1.3,2.7-4.7,2.7c-18.1,1.3-30.8,2.7-46.2,4.7c-15.4,2-28.8,6-40.2,10.7
			c-12.1,5.4-20.8,12.1-26.8,20.8c-6,8.7-8.7,19.4-8.7,32.2c0,12.1,4.7,21.4,12.7,28.8c8.7,7.4,19.4,11.4,33.5,11.4
			c8.7,0,14.7-0.7,19.4-2c4.7-1.3,10.1-2.7,15.4-5.4c4-1.3,8-4,12.7-6.7c4.7-2.7,8-5.4,12.1-7.4l0,0l-1.3,4.7l0,0l0,0
			c-1.3,6,2,10.7,8.7,11.4l0,0h0.7l0,0c4,0,18.1,0,24.1,0h4.7h0.7c6-0.7,12.1-5.4,13.4-11.4l22.8-96.5c0.7-2,0.7-4.7,1.3-8
			c0-3.4,0.7-5.4,0.7-7.4C399.9,326.4,393.8,316.3,381.8,309.6z M238.4,287.5c-4-7.4-10.1-13.4-17.4-18.1s-16.8-8-27.5-10.1
			c-10.7-2-22.8-2.7-36.9-2.7H91c-6.7,0-13.4,5.4-14.7,11.4L32,455.7c-1.3,6.7,2.7,11.4,9.4,11.4h31.5c6.7,0,13.4-5.4,15.4-11.4
			L99,410.1c1.3-6.7,8-11.4,15.4-11.4h8.7c38.2,0,68.3-7.4,89.8-22.8c21.4-15.4,32.2-35.5,32.2-61
			C244.4,304.3,242.4,294.9,238.4,287.5z M170,349.2c-9.4,6.7-22.8,10.1-39.5,10.1h-8c-6.7,0-11.4-5.4-9.4-11.4l9.4-39.5
			c1.3-6,8-11.4,14.7-11.4h10.1c12.1,0,20.8,2,27.5,6c6,4,9.4,10.1,9.4,18.1C184.8,332.4,180.1,342.5,170,349.2"/>
	</g>
</g>
</svg>
