<?xml version="1.0" encoding="utf-8"?>
<!-- Generator: Adobe Illustrator 18.1.0, SVG Export Plug-In . SVG Version: 6.00 Build 0)  -->
<svg version="1.1" id="Layer_1" xmlns="http://www.w3.org/2000/svg" xmlns:xlink="http://www.w3.org/1999/xlink" x="0px" y="0px"
	 viewBox="12 134 1000 500" enable-background="new 12 134 1000 500" xml:space="preserve">
<path fill="#5F6062" d="M432.2,351.2l0.1,45.3l-33.3,0.1v-109l33.2-0.1v14.5c2.8-5.4,6.9-9.6,12.3-12.7c5.3-3.1,11.1-4.7,17.3-4.7
	c1.8,0,3.6,0.1,5.2,0.2c1.5,0.2,2.6,0.4,3.2,0.5l-11,34.1c-0.3-0.1-0.8-0.3-1.8-0.5c-0.9-0.1-2.2-0.2-3.8-0.2c-2.2,0-4.6,0.3-7.3,1
	c-4.9,1.4-7.4,3.1-10,6.6c-2.6,3.4-3.9,10.5-4.1,17C432.2,345.7,432.2,348.7,432.2,351.2"/>
<path fill="#5F6062" d="M584.5,317.4l-68.7,43.1c1,1.1,3.2,2.6,6.7,4.3c2.9,1.4,7,2.2,12.3,2.2c0.7,0,1.4,0,2.4,0
	c3.8-0.4,7.7-1.4,11.6-3.1c3.8-1.6,7.1-3.5,9.8-5.3c2.8-1.8,4.2-3,4.2-3.2l17.1,26.2c-1.5,1.2-4.3,3-8.3,5.3
	c-3.9,2.4-9.1,4.8-15.7,7.3c-6.7,2.5-13.7,3.8-21,3.9c-0.3,0-0.5,0-0.7,0c-10.6,0-20.5-2.5-29.4-7.4c-9.2-4.8-16.6-11.6-21.9-20.3
	s-8.1-18.3-8.2-29.1c0-0.2,0-0.5,0-0.7c0-9.2,2.2-18,6.5-26.4c4.4-8.5,10.4-15.4,18.3-20.9c7.9-5.4,16.7-8.7,26.4-9.8
	c2.6-0.2,4.9-0.3,7.4-0.3c6.6,0,12.7,1,18.5,3.2c7.7,3.2,13.9,6.9,18.5,11.3c4.6,4.5,8,8.5,10.1,12
	C582.5,313.2,583.8,315.7,584.5,317.4 M506.1,340.1l39-24.4c-0.8-0.6-2.4-1.3-4.4-2.2c-2.3-0.8-5-1.2-8.4-1.2
	c-7.4,0-13.5,2.8-18.5,8.4C508.6,326.3,506.1,332.8,506.1,340.1z"/>
<path fill="#5F6062" d="M690.8,319.2v77.4l-30.6-0.1v-8.7c0,0.3-1.1,1.3-3.4,3c-2.4,1.7-5.4,3.4-9.1,4.8c-3.8,1.5-8.1,2.4-13,2.5
	c-0.2,0-0.5,0-0.7,0c-6.9,0-13.3-1.5-19.3-4.5c-6.3-3.1-11.3-7.5-14.8-13.2c-3.7-5.6-5.5-12.3-5.5-20c0-7.2,1.8-13.5,5.5-19.3
	c3.6-5.7,8.6-10.1,15.2-13.4c5.8-2.9,12.2-4.3,18.8-4.3c0.7,0,1.4,0,2.2,0c4.3,0.1,8.1,0.8,11.6,2.2c3.3,1.3,6,2.8,8.2,4.3l3.3,2.4
	c0-4.4-0.4-7.9-1.1-10.3c-1.1-3.9-3.2-6.9-6.2-8.9c-3-1.7-7.6-2.7-13.9-2.7c-0.4,0-0.7,0-1.1,0c-5,0-11,1.3-17.8,3.9
	c-7,2.6-11,4.3-11.8,5.2l6.2-30.3c0.2-0.2,2.6-0.8,7-1.8c4.4-0.9,8.9-1.7,13.4-2.5c4.4-0.7,8.7-1.1,12.8-1.2c0.7,0,1.4,0,2.2,0
	c7.2,0,13.8,1.1,20,3.4c6.7,2.6,12,6.6,16.1,11.8C688.7,304,690.8,310.9,690.8,319.2 M658.7,360.2c0-4.3-1.6-7.8-4.8-10.5
	c-3.1-2.5-6.9-3.8-11.3-3.8c-0.2,0-0.5,0-0.7,0c-4.3,0.2-7.9,1.5-10.9,3.9c-3.1,2.5-4.7,5.6-4.8,9.4c0,0.2,0,0.5,0,0.7
	c0,3.9,1.4,7.1,4.3,9.4c3.1,2.8,7.3,4.1,12.5,4.1c4.4,0,8.2-1.1,11.3-3.4C657.2,367.9,658.7,364.6,658.7,360.2z"/>
<polyline fill="#5F6062" points="712.3,396.6 712.3,252 746.3,252 746.2,396.6 712.3,396.6 "/>
<path fill="#F3901D" d="M872.2,317.4l-68.7,43.1c0.9,1.1,3.2,2.6,6.7,4.3c2.9,1.4,7,2.2,12.3,2.2c0.7,0,1.4,0,2.4,0
	c3.8-0.4,7.7-1.4,11.6-3.1c3.8-1.6,7.1-3.5,9.8-5.3c2.8-1.8,4.1-3,4.1-3.2l17.1,26.2c-1.5,1.2-4.3,3-8.2,5.3
	c-3.9,2.4-9.1,4.8-15.7,7.3c-6.7,2.5-13.7,3.8-21,3.9c-0.2,0-0.5,0-0.7,0c-10.6,0-20.5-2.5-29.5-7.4c-9.2-4.8-16.6-11.6-21.9-20.3
	c-5.3-8.7-8.1-18.3-8.2-29.1c0-0.2,0-0.5,0-0.7c0-9.2,2.2-18,6.5-26.4c4.4-8.5,10.4-15.4,18.3-20.9c7.9-5.4,16.7-8.7,26.4-9.8
	c2.5-0.2,4.9-0.3,7.3-0.3c6.6,0,12.7,1,18.5,3.2c7.7,3.2,13.9,6.9,18.5,11.3c4.6,4.5,8,8.5,10.1,12
	C870.1,313.2,871.5,315.7,872.2,317.4 M793.8,340.1l39-24.4c-0.8-0.6-2.4-1.3-4.4-2.2c-2.3-0.8-5-1.2-8.4-1.2
	c-7.4,0-13.5,2.8-18.5,8.4C796.4,326.3,793.8,332.8,793.8,340.1z"/>
<polyline fill="#F3901D" points="879.1,287.7 918,287.6 934.6,314.4 951.9,287.6 990.1,287.6 953,339.7 991.7,396.4 951.6,396.3 
	933.6,366.3 915.1,396.2 875,396.2 915,339.7 879.1,287.7 "/>
<path fill="#5F6062" d="M527,451.5v-0.9l-0.1-1.7c-0.1-8.4-7.3-13.8-22.7-12.2c-2.9,0.4-6,0.9-10.9,2.6l-3.6,1.1l-2.4,0.8l3.7-13.3
	c1.6-0.4,3.3-0.8,4.9-1.1c32.8-6.9,47.2,3.7,47.1,22.5v49.5h-15v-9c-0.4,0.5-0.8,1.1-1.3,1.6c-6.7,7.3-15.7,10.1-25.4,8.1
	c-13.3-2.8-21.3-12.2-21.7-24.8c-0.4-16.9,13.8-29,33-25.4c4.2,0.8,8.2,2.5,12.5,5.5l1.1,0.7l0.8,0.7v-4.7 M507.1,488
	c12,2.3,20.4-4.5,20.5-13.7c0.1-8.1-6.5-14.5-16.8-14.5c-9.7,0-16.1,6.2-16.1,14.5C494.8,481.1,499.6,486.6,507.1,488z"/>
<path fill="#5F6062" d="M628.1,426.8h15.2v11c0.2-0.8,0.7-1.6,1.2-2.4c3.7-6.2,8-9.2,15-10.2c2.3-0.3,4.5-0.4,6.8-0.1
	c8,0.9,12.6,4.3,15.7,10.3c0.3,0.7,0.5,1.5,0.8,2.2c0.4-0.5,0.8-1.2,1.2-1.9c5.3-7.6,10.5-10.4,20.2-10.8c15-0.3,22.1,8.9,22,32.4
	v41.7l-15.3-0.1v-42.9l-0.1-4.8c-0.4-8.5-6.1-13.6-14.5-11.8c-6.6,1.5-11.4,8.1-11.5,18.8v40.6h-15.3v-48c0-0.9,0-2-0.1-3.2
	c-1.2-7.2-10.3-11.4-17.6-7.2c-4,2.4-6.9,6.8-8,14.1c-0.1,1.1-0.3,2.4-0.3,3.6v40.8h-15.3v-72"/>
<path fill="#5F6062" d="M755.8,476.9c0.5,0.7,0.9,1.4,1.5,2c5.4,6.3,13.3,8.9,22.3,6.9c4.7-0.9,9.2-3.5,13.7-7.7
	c0.8-0.7,1.5-1.5,2.4-2.4l9.9,9.6c-6.3,7.7-15.3,12.8-25.1,14.2c-28.1,4.5-50-17.8-44.9-44.3c3-15.8,14.4-26.9,30.3-29.5
	c14.7-2.5,26.9,2.2,37.8,14.8c0.9,1.1,1.9,2.4,2.9,3.7L755.8,476.9 M776.8,438.8c-8.9-1.9-18,1.7-23.2,9.7c-3.6,5.2-4.7,11.7-3.3,18
	l36.1-23.1C783.6,441,780.4,439.4,776.8,438.8z"/>
<path fill="#5F6062" d="M816.6,426.6h15.1v10.3c0.4-0.7,0.8-1.3,1.3-2c4-5.2,8-8,13.7-9.2c18.6-4.1,29.4,5.6,29.8,25.5v47.6H861
	v-48.4c-0.1-8.2-6.5-13.3-16.1-11.4c-4.2,0.8-8.2,3.7-10.8,8.1c-1.3,2.2-2,4.5-2.2,8.8v42.8h-15.6v-72.1"/>
<path fill="#5F6062" d="M942.4,481.2c0.7,0.5,1.4,0.9,2.2,1.3c6,3.4,11.6,4.6,16.2,4c6.1-0.8,9.6-3.6,10.4-6.6
	c1.6-5.3-0.3-8.4-6.8-11.2c-0.5-0.1-1.1-0.4-1.6-0.5l-6.1-1.9l-4.4-1.5l-2.7-0.8c-9.2-3.3-14-11.8-11.2-22.9
	c1.3-5.5,5.3-10.4,12-13.6c4.5-2.2,10.8-3.2,18.5-2.5c4.5,0.5,9.2,1.7,15.3,4.8c0.9,0.3,1.7,0.8,2.6,1.2l-5.2,11.8
	c-2.2-1.4-4.5-2.5-6.9-3.2c-4.6-1.3-8-1.7-10.4-1.5c-5.9,0.7-9.2,3.2-10.2,6.2c-1.3,4.1,0.3,7.3,4.8,9.1l2.9,1.1l1.5,0.5l5.6,1.9
	c13.7,4.7,18,8.9,19,18.3c1.9,15.4-13.2,28.4-35.4,24.2c-4.2-0.8-8.5-2.2-12.5-4.2c-1.1-0.5-2.4-1.1-3.5-1.7L942.4,481.2"/>
<path fill="#5F6062" d="M413.4,514.8V488c0.5,0.7,1.1,1.4,1.6,2c8,8.4,17.9,11.8,29.5,9.7c2.4-0.4,4.5-1.1,6.8-2
	c13.6-5.3,22.5-18.7,22.5-34.8c0-19.3-12.4-34.2-29-37.2c-13.2-2.4-22.2,0.9-30.3,10c-0.5,0.5-1.1,1.1-1.5,1.7v-10.9l-15.1,0.1v88
	H413.4 M417.2,449.1c4.4-6.3,10.9-9.7,18.5-9.7c7.6,0,14,3.4,18.5,9.7c2.7,4,4.1,8.7,4.1,13.6s-1.5,9.6-4.1,13.5
	c-4.5,6.5-11,9.8-18.5,9.8c-7.7,0-14.1-3.4-18.5-9.8c-2.8-3.9-4.1-8.5-4.1-13.5C413.1,457.8,414.5,453.1,417.2,449.1z"/>
<polyline fill="#5F6062" points="566.1,514.8 582.8,514.8 620.3,427.1 604.1,427 585,474.4 563.9,426.9 546.8,427 577.4,489 
	566.1,514.8 "/>
<path fill="#5F6062" d="M924.1,485.6c-10.4,1.9-15.9-2.6-15.9-13.3v-33h16.1l-0.2-12.1h-15.9v-16.7h-15.7v16.7h-6.1l-0.1,12.1h6.3
	v32.8c0,20.3,8.6,28.7,27.4,27.3l3-0.3l1.6-0.3l1.5-13.7C925.5,485.3,924.8,485.4,924.1,485.6"/>
<path fill="#5F6062" d="M108.9,379.3c-0.4-2.3-0.8-4.3-1-6.1c-10.9-3.8-22-7.9-33.2-12.4C74.6,360.9,88.2,368.8,108.9,379.3"/>
<path fill="#5F6062" d="M282.1,300.4c0,0-32.4-33.3-86.5-44.5c0,0-97.5-26.5-163.3,82.8c0,0,54.4-71.6,128.9-68.3
	c0,0,47.9-0.2,94.4,35.4c0,0,65.2,53,43.4,86.9c0,0-7.9,23.7-78.8,11.8c0,0-34.3-6.8-79.7-20.6c0.8,3.5,2.2,8.2,3.2,11.9
	c33.5,14.5,73.4,28.7,107.2,31.1c0,0,64.9,9.1,73.5-41.3C324.4,385.7,332.7,348.2,282.1,300.4"/>
<path fill="#F3901D" d="M191.5,516c0,0-68.9-119.6-57.7-175.6c0,0,5.7-47.5,68.1-28.2c0,0,41.2,14.4,80.2,43.9
	c0,0-41.5-53.7-92.5-65.9c0,0-64.9-20-77.8,49.6C111.9,339.8,94.6,412.4,191.5,516"/>
</svg>
