<?xml version="1.0" encoding="utf-8"?>
<!-- Generator: Adobe Illustrator 19.0.0, SVG Export Plug-In . SVG Version: 6.00 Build 0)  -->
<svg version="1.1" id="Layer_1" xmlns="http://www.w3.org/2000/svg" xmlns:xlink="http://www.w3.org/1999/xlink" x="0px" y="0px"
	 viewBox="-412 0.9 1000 500" style="enable-background:new -412 0.9 1000 500;" xml:space="preserve">
<style type="text/css">
	.st0{fill:#242B34;}
	.st1{fill:#FB661F;}
</style>
<path class="st0" d="M-405.6,264l4-22.6c0.6-4,1.1-8.5,2.3-13l4.5,2.3c13,6.2,26,11.9,40.6,11.9c2.3,0,4.5,0,6.8-0.6
	c11.9-2.3,17.5-13.5,10.7-24.3c-2.8-4.5-6.8-8.5-11.3-11.9l-23.1-16.4c-11.3-7.9-20.9-16.9-27.1-29.4c-16.4-33.9,4.5-73.4,41.8-78.5
	c19.2-2.3,37.3,0,55.3,7.3c2.8,1.1,3.4,2.3,2.8,5.1c-2.3,11.9-3.4,23.7-5.6,36.7c-1.7-1.1-3.4-1.7-4.5-2.3c-9.6-5.1-19.8-8.5-30.5-9
	c-9-0.6-15.8,4-16.9,11.3c-0.6,3.4,0.6,8.5,2.3,11.3c3.4,4.5,8.5,8.5,13.5,12.4c10.7,7.9,22,14.7,31.6,23.1
	c19.8,17.5,25.4,40.1,18.6,65.5c-5.6,20.9-23.1,35-45.7,37.8c-24.3,2.8-47.4-1.1-70-11.3V264z"/>
<path class="st0" d="M581.6,81.7l-4.5,0.6h-41.2c-2.8,0-4,1.1-5.1,4l-15.2,45.2c-2.8,8.5-6.2,17.5-9.6,27.1
	c-9.6-26.5-18.1-51.9-27.1-77.9c-16.9,2.3-33.9,4.5-50.8,7.3l1.7,4.5l48,112.3c1.1,3.4,2.3,6.8,2.3,10.7v62.7h47.4v-65.5
	c0-2.3,0.6-4.5,1.1-6.8l37.8-87.5l15.2-33.9L581.6,81.7L581.6,81.7z"/>
<path class="st0" d="M-157.3,144.9c8.5,44.6,15.8,89.2,23.7,133.8h43.5c2.8,0,2.8-1.7,2.8-3.4l18.1-106.1l4-23.7h0.6
	c1.7,44,3.4,88.1,4.5,132.7H-15c-2.8-65.5-5.1-130.4-7.9-195.3h-63.8c-7.3,42.3-14.7,84.7-22.6,126.4c-1.1-1.1-1.1-1.7-1.7-2.8
	l-20.9-120.2c-0.6-3.4-1.7-4-4.5-4h-59.8c-2.8,64.9-5.1,129.8-7.9,195.3h41.2C-160.7,233-159,189-157.3,144.9z"/>
<path class="st0" d="M76.4,210.4c19.8-4,36.1-13.5,45.2-32.7c6.8-14.7,7.3-29.9,5.1-45.2c-1.7-11.9-6.2-22.6-15.2-31.6
	c-13-13-28.8-17.5-46.3-18.6C45.9,81.1,26.8,81.7,7,81.7l-2.3,0.6V277h45.7v-63.8C59.5,212.7,68,212.1,76.4,210.4z M50.5,119
	c20.3-2.8,32.2,6.8,32.7,26.5c0,4,0,7.9-1.1,11.9c-2.3,11.3-10.2,18.1-21.5,19.2H50.5V119z"/>
<path class="st0" d="M373.3,202.5h42.3l-6.8-40.6h-36.1v-39.5h51.9V82.3h-98.8v195.3h46.3C373.3,252.2,373.3,227.3,373.3,202.5z"/>
<polygon class="st0" points="141.3,277.6 240.7,277.6 233.9,236.4 188.2,236.4 188.2,82.8 141.3,82.8 "/>
<rect x="-270.7" y="82.3" class="st0" width="46.9" height="195.3"/>
<rect x="254.8" y="82.8" class="st0" width="46.9" height="194.7"/>
<path class="st1" d="M88.8,414.2v-31.6c0-12.4,0-24.8,0.6-37.3c1.1-15.2,9-24.8,22.6-27.7c4.5-1.1,9.6-0.6,14.7-0.6
	c9,1.1,15.2,6.2,17.5,15.2c1.1,4.5,1.7,9.6,1.7,14.7v72.3H156v-27.1c0-17.5,0-35-0.6-52.5c-0.6-11.3-4.5-21.5-15.2-27.7
	c-15.8-8.5-38.4-4.5-50.2,9l-4.5,5.6c-9-24.3-51.4-26-64.9-2.3l-1.7-11.9c0-1.1-1.7-2.3-2.8-2.3c-1.7-0.6-4,0-5.6,0v108.9H20v-58.7
	c0-7.9,1.1-15.8,2.8-23.1c5.1-18.1,29.4-26.5,45.2-16.4c1.1,0.6,1.7,1.1,2.3,2.3c6.2,5.6,7.3,13,7.3,20.9v75.6h10.2
	C88.8,417,88.8,415.3,88.8,414.2z"/>
<path class="st1" d="M-160.7,413.6v-54.8c0-7.3,1.1-14.7,2.8-22c2.8-11.3,9.6-18.1,21.5-20.3c4.5-0.6,9-0.6,13.5-0.6
	c10.7,1.1,17.5,7.3,19.2,18.1c0.6,2.8,0.6,5.6,0.6,8.5v75.1h10.7v-63.8c0-4,0.6-8.5,1.1-12.4c2.3-13.5,9.6-22,22.6-24.3
	c5.1-1.1,10.7-1.1,15.8,0c8.5,1.1,14.1,5.6,16.4,14.1c1.1,5.1,2.3,10.2,2.3,15.8v72.3h10.2v-71.7c0-4,0-7.9-1.1-11.9
	c-2.3-12.4-7.9-22-20.9-26c-16.9-4.5-36.7-1.7-48,16.4c0,0-0.6,0-1.1,0.6c-5.6-14.1-17.5-18.1-31-18.6c-14.1-0.6-25.4,4.5-33.9,16.9
	c-1.1-5.6-1.7-10.2-2.3-14.7h-7.9v108.9h9.6C-160.7,419.3-160.7,413.6-160.7,413.6z"/>
<path class="st1" d="M567,365.1c-1.1-9.6-1.1-18.1-3.4-26.5c-3.4-14.7-11.9-25.4-27.1-29.9c-23.1-6.8-45.7,4.5-54.8,27.7
	c-6.8,17.5-6.8,35-1.1,52.5c5.6,16.9,17.5,27.1,35,30.5c13,2.3,26.5,1.7,38.9-3.4c9-3.4,6.8-0.6,7.3-10.7c0,0,0-0.6-0.6-1.1
	c-1.1,0.6-2.3,0.6-2.8,1.1c-8.5,1.7-16.9,4.5-25.4,5.6c-13.5,1.1-26-1.1-35-11.9c-7.9-9.6-9.6-20.9-10.2-33.9L567,365.1L567,365.1z
	 M488.5,356c1.1-28.8,20.3-43.5,42.9-38.9c7.9,1.7,13.5,6.2,18.1,13c4.5,7.9,6.2,16.9,6.2,26L488.5,356L488.5,356z"/>
<path class="st1" d="M266.1,406.3c-10.2,4-20.3,5.6-31,5.1c-27.7-0.6-38.9-22.6-37.8-45.7h77.9c0-5.6,0.6-10.7,0-15.8
	c-1.1-13.5-5.6-26-16.4-34.4c-20.3-15.8-52.5-7.9-64.4,15.8c-10.2,20.3-10.7,41.2-2.3,62.1c5.6,14.7,17.5,23.7,33.3,26.5
	c13,2.3,26.5,1.7,38.9-2.8c9.6-3.4,7.3-0.6,7.3-11.3l-0.6-0.6C268.9,405.2,267.2,405.7,266.1,406.3z M197.2,356
	c1.1-13.5,4.5-25.4,15.8-33.3c10.2-7.3,22-9,33.3-3.4c10.7,5.1,14.7,14.7,16.9,25.4c0.6,4,0.6,7.3,1.1,11.9
	C241.8,356,219.8,356,197.2,356z"/>
<path class="st1" d="M-200.7,363.9c-0.6-4-0.6-7.9-1.1-12.4c-2.8-24.8-17.5-41.2-41.2-44c-24.3-3.4-44.6,9.6-51.9,32.2
	c-4.5,14.7-4.5,29.4-0.6,44c6.2,23.1,22,36.1,45.2,36.7c22.6,0.6,39.5-11.3,45.7-32.2C-202.4,380.3-201.9,371.9-200.7,363.9z
	 M-215.4,387.1c-5.1,15.8-16.9,23.7-33.3,24.3c-16.9,0-28.8-7.9-34.4-23.1c-5.6-16.4-5.6-32.7,0-49.1c5.6-15.2,16.9-22.6,33.9-22.6
	c15.8,0,28.2,7.9,33.3,22.6c2.8,7.9,3.4,16.4,5.1,24.3C-212,371.9-212.6,379.8-215.4,387.1z"/>
<path class="st1" d="M-348.6,306.9c-21.5,1.7-37.3,13.5-43.5,33.9c-4,11.9-4,24.3-2.3,36.7c1.1,10.2,5.1,19.2,11.3,27.1
	c13,15.8,46.3,21.5,63.8,11.3c0.6-0.6,1.7-1.1,1.7-2.3v-6.8c-7.9,1.7-15.2,3.4-23.1,4c-20.9,2.3-36.7-9-41.8-29.4
	c-2.8-11.3-2.8-22.6-0.6-33.3c4.5-21.5,17.5-32.2,39.5-31.6c7.9,0,15.8,2.3,24.3,3.4c0.6-2.3,1.7-5.1,2.3-7.9
	C-323.8,308.6-337.9,306.4-348.6,306.9z"/>
<path class="st1" d="M425.3,306.9c-22.6,1.7-38.4,14.7-44,36.7c-3.4,13-3.4,25.4-0.6,38.4c1.7,9.6,6.2,17.5,12.4,24.8
	c16.4,17.5,46.9,15.2,61.5,9.6c1.1-0.6,1.7-1.7,1.7-2.8v-6.8c-7.9,1.7-15.2,3.4-22.6,4c-21.5,2.3-36.7-8.5-41.8-29.4
	c-3.4-12.4-2.8-24.8,0.6-37.3c4-14.7,13.5-24.8,28.8-27.1c6.2-1.1,13-0.6,19.2,0c5.1,0.6,10.2,2.3,15.2,3.4c1.1-2.8,1.7-5.6,2.8-9
	C446.7,308.1,436.6,306.4,425.3,306.9z"/>
<path class="st1" d="M305.6,418.7h9.6v-58.1c0-9,1.1-18.1,5.6-26c6.2-11.9,15.8-18.6,29.9-17.5l10.7,1.1c0.6-1.7,0.6-3.4,1.1-4.5
	c0.6-1.7,0.6-3.4,0.6-4.5c-20.3-4.5-37.3-0.6-47.4,19.8l-0.6-0.6l-1.1-18.1h-8.5C305.6,310.3,305.6,418.7,305.6,418.7z"/>
</svg>
