<?xml version="1.0" encoding="utf-8"?>
<!-- Generator: Adobe Illustrator 18.1.0, SVG Export Plug-In . SVG Version: 6.00 Build 0)  -->
<svg version="1.1" id="Layer_1" xmlns="http://www.w3.org/2000/svg" xmlns:xlink="http://www.w3.org/1999/xlink" x="0px" y="0px"
	 viewBox="12 134 1000 500" enable-background="new 12 134 1000 500" xml:space="preserve">
<path id="Stripe_Logo" fill="#393939" d="M875.3,374.3c1.9-30.8,10.3-45.3,26.1-45.3c15.5,0,23.6,14.7,24.8,45.3H875.3z
	 M990.8,392.7c0-34.4-7.5-61.6-22.2-80.8c-14.9-19.4-37.5-29.4-66-29.4c-58.6,0-94.9,43.3-94.9,112.7c0,38.9,9.7,68,28.9,86.6
	c17.2,16.7,42,25,73.8,25c29.4,0,56.7-7,73.8-18.4l-7.5-47.2c-16.9,9.1-36.6,14.1-58.9,14.1c-13.3,0-22.5-2.7-29.2-8.6
	c-7.2-6.2-11.4-16.1-12.8-30.2h114.1C990.2,413.2,990.8,397.7,990.8,392.7z M715.3,439.3c-5.6,10.5-14.1,16.1-24.2,16.1
	c-7,0-13-1.4-18.6-4.2V348.4c11.6-12.2,22.2-13.6,26.1-13.6c17.5,0,26.1,18.9,26.1,55.8C724.8,411.8,721.7,428.2,715.3,439.3z
	 M772.6,306.1c-12.2-15.9-29.2-23.6-50.8-23.6c-20,0-37.5,8.3-53.8,25.8l-3.7-21.7h-60.6v296l68.9-11.4v-69.4
	c10.5,3.3,21.3,5,31.1,5c17.2,0,42.2-4.4,61.6-25.6c18.6-20.3,28.1-51.7,28.1-93C793.4,351.6,786.4,323.8,772.6,306.1z M507.5,286.6
	h69.1v216.1h-69.1V286.6z M542.2,265.2c20,0,36-16.4,36-36.4c0-20.3-16.1-36.4-36-36.4c-20.3,0-36.4,16.1-36.4,36.4
	C505.8,248.8,522,265.2,542.2,265.2z M477.8,283.6c-19.4,0-35,10.2-41.1,28.5l-4.2-25.6h-60.2v216.1h68.9V362.4
	c8.6-10.5,20.9-14.4,37.5-14.4c3.7,0,7.5,0,12.2,0.8v-63.5C486.2,284.2,481.9,283.6,477.8,283.6z M345.7,337.7l8.3-51.1h-43.9v-62.1
	l-59.1,9.7l-8.6,52.2l-20.8,3.4l-7.8,47.7h28.5v100.3c0,26.1,6.6,44.1,20.3,55.2c11.4,9.1,27.7,13.6,50.8,13.6c17.8,0,28.6-3.1,36-5
	v-54.2c-4.2,1.1-13.6,3.1-20,3.1c-13.6,0-19.4-7-19.4-22.8v-90.2h35.5V337.7z M148.5,367.9c-20.3-7.5-31.4-13.3-31.4-22.5
	c0-7.8,6.4-12.2,17.8-12.2c20.9,0,42.2,8.1,56.9,15.3l8.3-51.3c-11.6-5.6-35.6-14.7-68.6-14.7c-23.3,0-42.8,6.2-56.7,17.5
	c-14.5,12-21.9,29.2-21.9,50c0,37.8,23,53.8,60.6,67.4c24.2,8.6,32.2,14.7,32.2,24.2c0,9.1-7.8,14.5-21.9,14.5
	c-17.5,0-46.3-8.6-65.2-19.7l-8.3,51.9c16.1,9.1,46.1,18.6,77.2,18.6c24.8,0,45.3-5.8,59.1-16.9c15.5-12.2,23.6-30.2,23.6-53.6
	C210.1,397.7,186.5,381.6,148.5,367.9L148.5,367.9z"/>
</svg>
