<?xml version="1.0" encoding="UTF-8" standalone="no"?>
<!-- Created with Inkscape (http://www.inkscape.org/) -->

<svg
   xmlns:dc="http://purl.org/dc/elements/1.1/"
   xmlns:cc="http://creativecommons.org/ns#"
   xmlns:rdf="http://www.w3.org/1999/02/22-rdf-syntax-ns#"
   xmlns:svg="http://www.w3.org/2000/svg"
   xmlns="http://www.w3.org/2000/svg"
   xmlns:sodipodi="http://sodipodi.sourceforge.net/DTD/sodipodi-0.dtd"
   xmlns:inkscape="http://www.inkscape.org/namespaces/inkscape"
   width="256"
   height="256"
   viewBox="0 0 256 256"
   id="svg2"
   version="1.1"
   inkscape:version="0.91 r13725"
   sodipodi:docname="icon.svg">
  <defs
     id="defs4" />
  <sodipodi:namedview
     id="base"
     pagecolor="#ffffff"
     bordercolor="#666666"
     borderopacity="1.0"
     inkscape:pageopacity="0.0"
     inkscape:pageshadow="2"
     inkscape:zoom="0.98994949"
     inkscape:cx="106.44712"
     inkscape:cy="144.21254"
     inkscape:document-units="px"
     inkscape:current-layer="layer1"
     showgrid="false"
     units="px"
     inkscape:window-width="1366"
     inkscape:window-height="706"
     inkscape:window-x="-8"
     inkscape:window-y="304"
     inkscape:window-maximized="1" />
  <metadata
     id="metadata7">
    <rdf:RDF>
      <cc:Work
         rdf:about="">
        <dc:format>image/svg+xml</dc:format>
        <dc:type
           rdf:resource="http://purl.org/dc/dcmitype/StillImage" />
        <dc:title></dc:title>
      </cc:Work>
    </rdf:RDF>
  </metadata>
  <g
     inkscape:label="Layer 1"
     inkscape:groupmode="layer"
     id="layer1"
     transform="translate(0,-796.36219)">
    <g
       id="g4977"
       transform="matrix(0.2795691,0,0,0.2795691,1.3951331,756.35267)">
      <path
         id="path4370"
         d="m 686.05384,639.31632 c 1.73939,-11.52815 2.6505,-23.33115 2.6505,-35.34874 0,-129.85554 -105.26314,-235.11867 -235.11867,-235.11867 -129.85178,0 -235.11869,105.26313 -235.11869,235.11867 0,12.01383 0.91111,23.81682 2.6505,35.34874 l 464.93636,0 z"
         style="fill:#c93b2e"
         inkscape:connector-curvature="0" />
      <g
         transform="matrix(3.7649107,0,0,3.7649107,7.3947957,159.54242)"
         id="g4372">
        <path
           id="path4374"
           d="m 71.27,95.254 c 0.417,-0.25 0.945,-0.542 1.585,-0.876 0.639,-0.333 1.356,-0.66 2.148,-0.98 0.793,-0.319 1.641,-0.584 2.545,-0.792 0.904,-0.208 1.842,-0.313 2.816,-0.313 1.251,0 2.545,0.132 3.88,0.396 1.335,0.265 2.551,0.724 3.65,1.376 1.099,0.654 2.002,1.538 2.712,2.649 0.709,1.113 1.064,2.503 1.064,4.172 l 0,8.135 2.503,0 0,5.341 -8.928,0 -1.001,-1.878 c -0.39,0.529 -0.828,0.967 -1.314,1.314 -0.487,0.348 -0.987,0.619 -1.502,0.814 -0.515,0.193 -1.022,0.333 -1.522,0.416 -0.501,0.084 -0.932,0.125 -1.293,0.125 -1.001,0 -1.989,-0.139 -2.962,-0.416 -0.974,-0.279 -1.85,-0.695 -2.628,-1.252 -0.779,-0.557 -1.412,-1.272 -1.898,-2.148 -0.487,-0.877 -0.73,-1.926 -0.73,-3.15 0,-1.168 0.229,-2.225 0.688,-3.17 0.459,-0.945 1.085,-1.753 1.877,-2.42 0.793,-0.668 1.717,-1.183 2.774,-1.545 1.057,-0.36 2.169,-0.541 3.338,-0.541 0.611,0 1.161,0.062 1.648,0.188 0.486,0.125 0.903,0.271 1.251,0.438 0.348,0.167 0.626,0.334 0.834,0.501 0.208,0.167 0.34,0.278 0.396,0.333 l 0,-1.459 c 0,-0.945 -0.375,-1.572 -1.126,-1.878 -0.751,-0.306 -1.697,-0.459 -2.837,-0.459 -1.252,0 -2.399,0.208 -3.442,0.626 -1.043,0.417 -1.968,0.849 -2.774,1.293 l -1.752,-4.84 z m 9.261,14.477 c 0.64,0 1.196,-0.153 1.669,-0.459 0.473,-0.306 0.807,-0.611 1.001,-0.918 l 0,-1.585 c -0.028,-0.056 -0.091,-0.146 -0.188,-0.271 -0.098,-0.125 -0.244,-0.257 -0.438,-0.396 -0.195,-0.139 -0.438,-0.264 -0.73,-0.375 -0.292,-0.111 -0.661,-0.168 -1.105,-0.168 -0.834,0 -1.447,0.209 -1.836,0.627 -0.39,0.416 -0.584,0.945 -0.584,1.585 0,0.584 0.208,1.058 0.625,1.419 0.418,0.36 0.946,0.541 1.586,0.541 z"
           inkscape:connector-curvature="0"
           style="fill:#ffffff" />
        <path
           id="path4376"
           d="m 116.786,111.483 c -1.558,1.335 -3.199,2.274 -4.923,2.816 -1.725,0.542 -3.671,0.813 -5.841,0.813 -1.308,0 -2.615,-0.216 -3.921,-0.646 -1.308,-0.432 -2.482,-1.099 -3.525,-2.003 -1.043,-0.903 -1.898,-2.071 -2.566,-3.505 -0.667,-1.432 -1.001,-3.149 -1.001,-5.152 0,-1.695 0.292,-3.219 0.876,-4.568 0.584,-1.349 1.376,-2.496 2.378,-3.442 1.001,-0.945 2.183,-1.662 3.546,-2.148 1.363,-0.486 2.837,-0.73 4.422,-0.73 1.252,0 2.413,0.153 3.484,0.459 1.07,0.306 2.037,0.724 2.899,1.251 0.862,0.529 1.599,1.168 2.211,1.919 0.611,0.751 1.07,1.558 1.376,2.419 0.111,0.362 0.223,0.821 0.334,1.377 0.111,0.557 0.188,1.154 0.229,1.795 0.042,0.64 0.027,1.3 -0.042,1.98 -0.069,0.683 -0.216,1.314 -0.438,1.898 l -13.142,0 c 0.055,0.279 0.146,0.613 0.271,1.002 0.125,0.39 0.34,0.766 0.646,1.127 0.306,0.361 0.723,0.667 1.252,0.918 0.528,0.25 1.237,0.375 2.127,0.375 0.361,0 0.758,-0.014 1.189,-0.042 0.431,-0.027 0.897,-0.11 1.398,-0.251 0.5,-0.139 1.028,-0.34 1.585,-0.604 0.556,-0.265 1.112,-0.633 1.668,-1.106 l 3.508,4.048 z M 106.481,98.55 c -0.64,0 -1.162,0.125 -1.564,0.375 -0.403,0.25 -0.724,0.549 -0.959,0.896 -0.237,0.349 -0.404,0.717 -0.501,1.105 -0.098,0.391 -0.16,0.71 -0.188,0.96 l 6.3,0 c 0,-0.39 -0.042,-0.786 -0.125,-1.188 -0.083,-0.403 -0.229,-0.766 -0.438,-1.085 -0.208,-0.319 -0.515,-0.577 -0.917,-0.772 -0.405,-0.193 -0.941,-0.291 -1.608,-0.291 z"
           inkscape:connector-curvature="0"
           style="fill:#ffffff" />
        <path
           id="path4378"
           d="m 130.637,114.362 -12.183,0 0,-5.466 1.794,0 0,-20.443 -1.752,0 0,-5.382 9.679,0 0,25.825 2.462,0 0,5.466 z"
           inkscape:connector-curvature="0"
           style="fill:#ffffff" />
        <path
           id="path4380"
           d="m 143.987,114.362 -11.682,0 0,-5.466 1.752,0 0,-9.971 -1.752,0 0,-5.424 9.679,0 0,15.395 2.003,0 0,5.466 z M 133.473,87.41 c 0,-0.473 0.098,-0.959 0.292,-1.46 0.194,-0.501 0.48,-0.96 0.855,-1.377 0.376,-0.417 0.849,-0.757 1.419,-1.022 0.569,-0.264 1.216,-0.396 1.939,-0.396 0.723,0 1.37,0.132 1.94,0.396 0.569,0.265 1.049,0.605 1.439,1.022 0.389,0.417 0.688,0.876 0.896,1.377 0.209,0.5 0.313,0.987 0.313,1.46 0,1.168 -0.391,2.163 -1.169,2.983 -0.778,0.821 -1.919,1.231 -3.421,1.231 -0.667,0 -1.272,-0.125 -1.814,-0.375 -0.543,-0.25 -1.016,-0.577 -1.419,-0.98 -0.403,-0.403 -0.716,-0.855 -0.938,-1.356 -0.222,-0.501 -0.332,-1.002 -0.332,-1.503 z"
           inkscape:connector-curvature="0"
           style="fill:#ffffff" />
        <path
           id="path4382"
           d="m 146.532,95.254 c 0.417,-0.25 0.945,-0.542 1.585,-0.876 0.64,-0.333 1.356,-0.66 2.149,-0.98 0.792,-0.319 1.641,-0.584 2.545,-0.792 0.903,-0.208 1.842,-0.313 2.815,-0.313 1.252,0 2.545,0.132 3.88,0.396 1.335,0.265 2.552,0.724 3.651,1.376 1.098,0.654 2.002,1.538 2.711,2.649 0.71,1.113 1.064,2.503 1.064,4.172 l 0,8.135 2.503,0 0,5.341 -8.928,0 -1.002,-1.878 c -0.39,0.529 -0.827,0.967 -1.313,1.314 -0.487,0.348 -0.988,0.619 -1.502,0.814 -0.516,0.193 -1.022,0.333 -1.523,0.416 -0.5,0.084 -0.932,0.125 -1.293,0.125 -1.001,0 -1.989,-0.139 -2.962,-0.416 -0.975,-0.279 -1.851,-0.695 -2.629,-1.252 -0.778,-0.557 -1.412,-1.272 -1.898,-2.148 -0.486,-0.877 -0.729,-1.926 -0.729,-3.15 0,-1.168 0.229,-2.225 0.688,-3.17 0.459,-0.945 1.084,-1.753 1.877,-2.42 0.793,-0.668 1.717,-1.183 2.774,-1.545 1.057,-0.36 2.17,-0.541 3.338,-0.541 0.611,0 1.161,0.062 1.647,0.188 0.486,0.126 0.904,0.271 1.252,0.438 0.348,0.167 0.626,0.334 0.834,0.501 0.209,0.167 0.341,0.278 0.396,0.333 l 0,-1.459 c 0,-0.945 -0.375,-1.572 -1.126,-1.878 -0.751,-0.306 -1.697,-0.459 -2.837,-0.459 -1.252,0 -2.399,0.208 -3.442,0.626 -1.043,0.417 -1.968,0.849 -2.774,1.293 l -1.751,-4.84 z m 9.261,14.477 c 0.64,0 1.195,-0.153 1.669,-0.459 0.473,-0.306 0.807,-0.611 1.001,-0.918 l 0,-1.585 c -0.027,-0.056 -0.09,-0.146 -0.188,-0.271 -0.098,-0.125 -0.244,-0.257 -0.438,-0.396 -0.195,-0.139 -0.438,-0.264 -0.73,-0.375 -0.292,-0.111 -0.661,-0.168 -1.105,-0.168 -0.835,0 -1.446,0.209 -1.836,0.627 -0.39,0.416 -0.584,0.945 -0.584,1.585 0,0.584 0.209,1.058 0.626,1.419 0.417,0.361 0.946,0.541 1.585,0.541 z"
           inkscape:connector-curvature="0"
           style="fill:#ffffff" />
      </g>
      <path
         id="path4384"
         d="m 9.7290404,568.63012 0,67.61404 183.7916496,2.30036 c -1.50973,-11.40392 -2.3719,-23.0149 -2.3719,-34.84049 0,-145.08459 117.66475,-262.68534 262.76443,-262.68534 145.09965,0 262.68534,117.60075 262.68534,262.68534 0,11.82559 -0.86216,23.43657 -2.36813,34.84049 l 183.86695,-2.30036 0,-69.8278 -105.40997,-18.49324 -0.0791,0.0715 C 788.9225,525.40519 783.053,503.53858 775.18057,482.64709 l 82.05623,-68.75103 -37.29144,-64.54186 -100.49676,36.65517 -0.0678,0.2146 c -14.35937,-17.5106 -30.40165,-33.60559 -47.90472,-47.98002 l 0.14306,-0.0715 36.64765,-100.48546 -64.55316,-37.28768 -68.6795,82.0487 0,0.064 c -20.90279,-7.88748 -42.78068,-13.80216 -65.40403,-17.50307 l 0.0753,-0.0678 -18.50077,-105.39872 -74.51888,0 -18.50077,105.40248 0.0678,0.0678 c -22.60829,3.68208 -44.50126,9.56664 -65.40781,17.43907 l -68.75103,-82.05247 -64.54563,37.28768 36.71917,100.48546 c -17.46165,14.32925 -33.49264,30.37154 -47.82942,47.83696 L 87.881057,349.3542 50.657385,413.89606 132.64961,482.66592 c -7.87996,20.87266 -13.82099,42.72044 -17.5106,65.32873 L 9.7290404,568.63012 Z"
         style="fill:#e57a25"
         inkscape:connector-curvature="0" />
      <rect
         id="rect4386"
         height="11.313557"
         width="890.92474"
         y="653.5213"
         style="fill:#c93b2e"
         x="7.3947821" />
    </g>
    <text
       xml:space="preserve"
       style="font-style:normal;font-weight:normal;font-size:18.75px;line-height:100%;font-family:sans-serif;letter-spacing:0px;word-spacing:0px;fill:#333333;fill-opacity:1;stroke:none;stroke-width:1px;stroke-linecap:butt;stroke-linejoin:miter;stroke-opacity:1"
       x="16.195313"
       y="989.42969"
       id="text4973"
       sodipodi:linespacing="100%"><tspan
         sodipodi:role="line"
         id="tspan4975"
         x="16.195313"
         y="989.42969"
         style="font-style:normal;font-variant:normal;font-weight:normal;font-stretch:normal;font-size:50px;line-height:100%;font-family:ChunkFive;-inkscape-font-specification:ChunkFive;fill:#333333;fill-opacity:1">Currency</tspan><tspan
         sodipodi:role="line"
         x="16.195313"
         y="1039.4297"
         style="font-style:normal;font-variant:normal;font-weight:normal;font-stretch:normal;font-size:50px;line-height:100%;font-family:ChunkFive;-inkscape-font-specification:ChunkFive;fill:#333333;fill-opacity:1"
         id="tspan4988">Switcher</tspan></text>
  </g>
</svg>
