<svg style="position: absolute; width: 0; height: 0; overflow: hidden;" version="1.1" xmlns="http://www.w3.org/2000/svg" xmlns:xlink="http://www.w3.org/1999/xlink">
    <defs>
        <symbol id="tcb-icon-lock-outline" viewBox="0 0 32 32">
            <title>lock-outline</title>
            <path d="M16 22.667c-1.48 0-2.667-1.2-2.667-2.667 0-1.48 1.187-2.667 2.667-2.667 1.473 0 2.667 1.194 2.667 2.667v0c0 1.473-1.194 2.667-2.667 2.667v0zM24 26.667v-13.333h-16v13.333h16zM24 10.667c1.473 0 2.667 1.194 2.667 2.667v0 13.333c0 1.473-1.194 2.667-2.667 2.667v0h-16c-1.48 0-2.667-1.2-2.667-2.667v-13.333c0-1.48 1.187-2.667 2.667-2.667h1.333v-2.667c0-3.682 2.985-6.667 6.667-6.667v0c3.682 0 6.667 2.985 6.667 6.667v0 2.667h1.333zM16 4c-2.209 0-4 1.791-4 4v0 2.667h8v-2.667c0-2.209-1.791-4-4-4v0z"></path>
        </symbol>
        <symbol id="tcb-icon-lock-open-outline" viewBox="0 0 32 32">
            <title>lock-open-outline</title>
            <path d="M24 26.667v-13.333h-16v13.333h16zM24 10.667c1.473 0 2.667 1.194 2.667 2.667v0 13.333c0 1.473-1.194 2.667-2.667 2.667v0h-16c-1.48 0-2.667-1.2-2.667-2.667v-13.333c0-1.473 1.194-2.667 2.667-2.667v0h12v-2.667c0-2.209-1.791-4-4-4v0c-2.209 0-4 1.791-4 4v0h-2.667c0-3.682 2.985-6.667 6.667-6.667v0c3.682 0 6.667 2.985 6.667 6.667v0 2.667h1.333zM16 22.667c-1.473 0-2.667-1.194-2.667-2.667v0c0-1.473 1.194-2.667 2.667-2.667v0c1.473 0 2.667 1.194 2.667 2.667v0c0 1.473-1.194 2.667-2.667 2.667v0z"></path>
        </symbol>
        <symbol id="tcb-icon-center" viewBox="0 0 32 32">
            <title>center</title>
            <path d="M15 0h2v32h-2v-32z"></path>
            <path d="M10 12h12c1.6 0 3 1.4 3 3v2c0 1.6-1.4 3-3 3h-12c-1.6 0-3-1.4-3-3v-2c0-1.6 1.4-3 3-3z"></path>
        </symbol>
        <symbol id="tcb-icon-float" viewBox="0 0 32 32">
            <title>float</title>
            <path d="M4 9.333h8v9.333h-8v-9.333zM4 5.333h24v1.333h-24v-1.333zM28 9.333v1.333h-13.333v-1.333h13.333zM28 13.333v1.333h-13.333v-1.333h13.333zM28 17.333v1.333h-13.333v-1.333h13.333zM4 21.333h18.667v1.333h-18.667v-1.333zM4 25.333h24v1.333h-24v-1.333z"></path>
        </symbol>
        <symbol id="tcb-icon-justify" viewBox="0 0 32 32">
            <title>justify</title>
            <path d="M30 0h2v32h-2v-32z"></path>
            <path d="M0 0h2v32h-2v-32z"></path>
            <path d="M9 12h14c1.6 0 3 1.4 3 3v2c0 1.6-1.4 3-3 3h-14c-1.6 0-3-1.4-3-3v-2c0-1.6 1.4-3 3-3z"></path>
        </symbol>
        <symbol id="tcb-icon-left" viewBox="0 0 32 32">
            <title>left</title>
            <path d="M5 0h2v32h-2v-32z"></path>
            <path d="M14 12h10c1.6 0 3 1.4 3 3v2c0 1.6-1.4 3-3 3h-10c-1.6 0-3-1.4-3-3v-2c0-1.6 1.4-3 3-3z"></path>
        </symbol>
        <symbol id="tcb-icon-right" viewBox="0 0 32 32">
            <title>right</title>
            <path d="M25 0h2v32h-2v-32z"></path>
            <path d="M8 12h10c1.6 0 3 1.4 3 3v2c0 1.6-1.4 3-3 3h-10c-1.6 0-3-1.4-3-3v-2c0-1.6 1.4-3 3-3z"></path>
        </symbol>
        <symbol id="tcb-icon-move" viewBox="0 0 32 32">
            <title>move</title>
            <path d="M32 16q0 0.464-0.339 0.804l-4.571 4.571q-0.339 0.339-0.804 0.339t-0.804-0.339-0.339-0.804v-2.286h-6.857v6.857h2.286q0.464 0 0.804 0.339t0.339 0.804-0.339 0.804l-4.571 4.571q-0.339 0.339-0.804 0.339t-0.804-0.339l-4.571-4.571q-0.339-0.339-0.339-0.804t0.339-0.804 0.804-0.339h2.286v-6.857h-6.857v2.286q0 0.464-0.339 0.804t-0.804 0.339-0.804-0.339l-4.571-4.571q-0.339-0.339-0.339-0.804t0.339-0.804l4.571-4.571q0.339-0.339 0.804-0.339t0.804 0.339 0.339 0.804v2.286h6.857v-6.857h-2.286q-0.464 0-0.804-0.339t-0.339-0.804 0.339-0.804l4.571-4.571q0.339-0.339 0.804-0.339t0.804 0.339l4.571 4.571q0.339 0.339 0.339 0.804t-0.339 0.804-0.804 0.339h-2.286v6.857h6.857v-2.286q0-0.464 0.339-0.804t0.804-0.339 0.804 0.339l4.571 4.571q0.339 0.339 0.339 0.804z"></path>
        </symbol>
        <symbol id="tcb-icon-play" viewBox="0 0 32 32">
            <title>play</title>
            <path fill="#fff" style="fill: var(--color1, #fff)" d="M29.854 7.969c-1.422-2.431-3.392-4.401-5.748-5.782l-0.075-0.041q-3.677-2.146-8.031-2.146t-8.031 2.146c-2.431 1.422-4.401 3.392-5.782 5.748l-0.041 0.075q-2.146 3.678-2.146 8.031t2.146 8.031c1.422 2.431 3.392 4.401 5.748 5.782l0.075 0.041q3.677 2.146 8.031 2.146t8.031-2.146c2.431-1.422 4.401-3.392 5.782-5.748l0.041-0.075q2.146-3.678 2.146-8.031t-2.146-8.031zM24 17.146l-11.333 6.667c-0.19 0.118-0.42 0.188-0.666 0.188-0 0-0.001 0-0.001 0h0c-0.244-0.003-0.473-0.064-0.675-0.171l0.008 0.004q-0.667-0.396-0.667-1.166v-13.333q0-0.771 0.667-1.167 0.688-0.375 1.333 0.021l11.334 6.667q0.666 0.375 0.666 1.146t-0.666 1.146z"></path>
        </symbol>
        <symbol id="tcb-icon-video-player" viewBox="0 0 32 32">
            <title>video-player</title>
            <path d="M21.224 18.053l-8-4c-0.155-0.077-0.339-0.070-0.486 0.022s-0.237 0.252-0.237 0.425v8c0 0.173 0.090 0.334 0.237 0.425 0.080 0.050 0.171 0.075 0.263 0.075 0.077 0 0.153-0.018 0.224-0.053l8-4c0.169-0.085 0.276-0.258 0.276-0.447s-0.107-0.362-0.276-0.447zM13.5 21.691v-6.382l6.382 3.191-6.382 3.191z"></path>
            <path d="M30 2.5h-28c-1.105 0-2 0.895-2 2v23c0 1.105 0.895 2 2 2h28c1.105 0 2-0.895 2-2v-23c0-1.105-0.895-2-2-2zM31 4.5v4h-4.164l1.34-5h1.825c0.551 0 1 0.449 1 1zM10.64 3.5l-1.339 5h-4.475l1.339-5h4.475zM11.675 3.5h4.465l-1.339 5h-4.465l1.339-5zM17.175 3.5h4.465l-1.34 5h-4.465l1.34-5zM22.675 3.5h4.465l-1.34 5h-4.465l1.34-5zM2 3.5h3.13l-1.339 5h-2.79v-4c0-0.551 0.449-1 1-1zM30 28.5h-28c-0.551 0-1-0.449-1-1v-18h30v18c0 0.551-0.449 1-1 1z"></path>
        </symbol>
        <symbol id="tcb-icon-post_grid" viewBox="0 0 32 32">
            <title>post_grid</title>
            <path d="M14.045 14.54c0.414 0 0.75-0.336 0.75-0.75s-0.336-0.75-0.75-0.75h-13.295c-0.414 0-0.75 0.337-0.75 0.75s0.336 0.75 0.75 0.75h13.295z"></path>
            <path d="M31.25 13.040h-13.295c-0.414 0-0.75 0.336-0.75 0.75s0.336 0.75 0.75 0.75h13.295c0.414 0 0.75-0.336 0.75-0.75s-0.336-0.75-0.75-0.75z"></path>
            <path d="M13.285-0.033h-11.6c-0.929 0-1.685 0.756-1.685 1.685v7.797c0 0.929 0.756 1.685 1.685 1.685h11.6c0.929 0 1.685-0.756 1.685-1.685v-7.797c0-0.929-0.756-1.685-1.685-1.685zM13.47 9.449c0 0.102-0.083 0.185-0.185 0.185h-11.6c-0.102 0-0.185-0.083-0.185-0.185v-7.797c0-0.102 0.083-0.185 0.185-0.185h11.6c0.102 0 0.185 0.083 0.185 0.185v7.797z"></path>
            <path d="M30.315-0.033h-11.6c-0.929 0-1.684 0.756-1.684 1.685v7.797c0 0.929 0.756 1.685 1.684 1.685h11.6c0.93 0 1.685-0.756 1.685-1.685v-7.797c0-0.929-0.756-1.685-1.685-1.685zM30.5 9.449c0 0.102-0.083 0.185-0.185 0.185h-11.6c-0.101 0-0.184-0.083-0.184-0.185v-7.797c0-0.102 0.083-0.185 0.184-0.185h11.6c0.102 0 0.185 0.083 0.185 0.185v7.797z"></path>
            <path d="M14.045 30.5h-13.295c-0.414 0-0.75 0.336-0.75 0.75s0.336 0.75 0.75 0.75h13.295c0.414 0 0.75-0.336 0.75-0.75s-0.335-0.75-0.75-0.75z"></path>
            <path d="M31.25 30.5h-13.295c-0.414 0-0.75 0.336-0.75 0.75s0.336 0.75 0.75 0.75h13.295c0.414 0 0.75-0.336 0.75-0.75s-0.336-0.75-0.75-0.75z"></path>
            <path d="M13.285 17.426h-11.6c-0.929 0-1.685 0.756-1.685 1.685v7.797c0 0.93 0.756 1.686 1.685 1.686h11.6c0.929 0 1.685-0.756 1.685-1.686v-7.797c0-0.929-0.756-1.685-1.685-1.685zM13.47 26.908c0 0.103-0.083 0.186-0.185 0.186h-11.6c-0.102 0-0.185-0.083-0.185-0.186v-7.797c0-0.102 0.083-0.185 0.185-0.185h11.6c0.102 0 0.185 0.083 0.185 0.185v7.797z"></path>
            <path d="M30.315 17.426h-11.6c-0.929 0-1.684 0.756-1.684 1.685v7.797c0 0.93 0.756 1.686 1.684 1.686h11.6c0.93 0 1.685-0.756 1.685-1.686v-7.797c0-0.929-0.756-1.685-1.685-1.685zM30.5 26.908c0 0.103-0.083 0.186-0.185 0.186h-11.6c-0.101 0-0.184-0.083-0.184-0.186v-7.797c0-0.102 0.083-0.185 0.184-0.185h11.6c0.104 0 0.185 0.081 0.185 0.185v7.797z"></path>
        </symbol>
        <symbol id="tcb-icon-content_temp" viewBox="0 0 32 32">
            <title>content_temp</title>
            <path d="M26.393 12.581h-20.786v6.837h20.785v-6.837zM24.893 17.918h-17.786v-3.837h17.785v3.837z"></path>
            <path d="M25.885 8.962h-19.77c-0.414 0-0.75 0.336-0.75 0.75s0.336 0.75 0.75 0.75h19.77c0.414 0 0.75-0.336 0.75-0.75s-0.336-0.75-0.75-0.75z"></path>
            <path d="M25.885 21.538h-19.77c-0.414 0-0.75 0.336-0.75 0.75s0.336 0.75 0.75 0.75h19.77c0.414 0 0.75-0.336 0.75-0.75s-0.336-0.75-0.75-0.75z"></path>
            <path d="M1.5 3.602c0-1.159 0.943-2.102 2.137-2.102l-0.035-1.5c-1.986 0-3.602 1.616-3.602 3.602v0.667h1.5v-0.667z"></path>
            <path d="M0 18.327h1.5v5.184h-1.5v-5.184z"></path>
            <path d="M0 11.913h1.5v5.184h-1.5v-5.184z"></path>
            <path d="M0 5.499h1.5v5.184h-1.5v-5.184z"></path>
            <path d="M17.694 0h5.185v1.5h-5.185v-1.5z"></path>
            <path d="M29.021 1.621l0.504-1.413c-0.387-0.138-0.795-0.208-1.209-0.208h-4.208v1.5h4.208c0.243 0 0.48 0.041 0.705 0.121z"></path>
            <path d="M4.867 0h5.184v1.5h-5.184v-1.5z"></path>
            <path d="M1.5 28.316v-3.576h-1.5v3.576c0 0.685 0.193 1.351 0.558 1.926l1.267-0.803c-0.213-0.335-0.325-0.722-0.325-1.123z"></path>
            <path d="M11.281 0h5.184v1.5h-5.184v-1.5z"></path>
            <path d="M14.786 30.418h5.184v1.5h-5.184v-1.5z"></path>
            <path d="M30.418 14.154h1.5v5.185h-1.5v-5.185z"></path>
            <path d="M2.458 30.079l-0.818 1.258c0.584 0.38 1.263 0.581 1.962 0.581h3.541v-1.5h-3.541c-0.409 0-0.805-0.117-1.144-0.339z"></path>
            <path d="M30.418 7.741h1.5v5.184h-1.5v-5.184z"></path>
            <path d="M30.418 28.316c0 1.159-0.942 2.102-2.102 2.102h-0.702v1.5h0.702c1.986 0 3.602-1.615 3.602-3.602v-1.334h-1.5v1.334z"></path>
            <path d="M30.418 20.568h1.5v5.184h-1.5v-5.184z"></path>
            <path d="M8.372 30.418h5.184v1.5h-5.184v-1.5z"></path>
            <path d="M30.833 1.024l-1.049 1.073c0.409 0.399 0.634 0.933 0.634 1.504v2.909h1.5v-2.908c0-0.978-0.386-1.893-1.085-2.578z"></path>
            <path d="M21.2 30.418h5.184v1.5h-5.184v-1.5z"></path>
        </symbol>
        <symbol id="tcb-icon-copy" viewBox="0 0 32 32">
            <title>copy</title>
            <path d="M30.286 6.857q0.714 0 1.214 0.5t0.5 1.214v21.714q0 0.714-0.5 1.214t-1.214 0.5h-17.143q-0.714 0-1.214-0.5t-0.5-1.214v-5.143h-9.714q-0.714 0-1.214-0.5t-0.5-1.214v-12q0-0.714 0.357-1.571t0.857-1.357l7.286-7.286q0.5-0.5 1.357-0.857t1.571-0.357h7.429q0.714 0 1.214 0.5t0.5 1.214v5.857q1.214-0.714 2.286-0.714h7.429zM20.571 10.661l-5.339 5.339h5.339v-5.339zM9.143 3.804l-5.339 5.339h5.339v-5.339zM12.643 15.357l5.643-5.643v-7.429h-6.857v7.429q0 0.714-0.5 1.214t-1.214 0.5h-7.429v11.429h9.143v-4.571q0-0.714 0.357-1.571t0.857-1.357zM29.714 29.714v-20.571h-6.857v7.429q0 0.714-0.5 1.214t-1.214 0.5h-7.429v11.429h16z"></path>
        </symbol>
        <symbol id="tcb-icon-trash" viewBox="0 0 32 32">
            <title>trash</title>
            <path d="M12.571 13.143v10.286q0 0.25-0.161 0.411t-0.411 0.161h-1.143q-0.25 0-0.411-0.161t-0.161-0.411v-10.286q0-0.25 0.161-0.411t0.411-0.161h1.143q0.25 0 0.411 0.161t0.161 0.411zM17.143 13.143v10.286q0 0.25-0.161 0.411t-0.411 0.161h-1.143q-0.25 0-0.411-0.161t-0.161-0.411v-10.286q0-0.25 0.161-0.411t0.411-0.161h1.143q0.25 0 0.411 0.161t0.161 0.411zM21.714 13.143v10.286q0 0.25-0.161 0.411t-0.411 0.161h-1.143q-0.25 0-0.411-0.161t-0.161-0.411v-10.286q0-0.25 0.161-0.411t0.411-0.161h1.143q0.25 0 0.411 0.161t0.161 0.411zM24 26.071v-16.929h-16v16.929q0 0.393 0.125 0.723t0.259 0.482 0.188 0.152h14.857q0.054 0 0.188-0.152t0.259-0.482 0.125-0.723zM12 6.857h8l-0.857-2.089q-0.125-0.161-0.304-0.196h-5.661q-0.179 0.036-0.304 0.196zM28.571 7.429v1.143q0 0.25-0.161 0.411t-0.411 0.161h-1.714v16.929q0 1.482-0.839 2.563t-2.018 1.080h-14.857q-1.179 0-2.018-1.045t-0.839-2.527v-17h-1.714q-0.25 0-0.411-0.161t-0.161-0.411v-1.143q0-0.25 0.161-0.411t0.411-0.161h5.518l1.25-2.982q0.268-0.661 0.964-1.125t1.411-0.464h5.714q0.714 0 1.411 0.464t0.964 1.125l1.25 2.982h5.518q0.25 0 0.411 0.161t0.161 0.411z"></path>
        </symbol>
        <symbol id="tcb-icon-add" viewBox="0 0 32 32">
            <title>add</title>
            <path d="M18 4v10h10v4h-10v10h-4v-10h-10v-4h10v-10h4z"></path>
        </symbol>
        <symbol id="tcb-icon-delete" viewBox="0 0 32 32">
            <title>delete</title>
            <path d="M22 8c0-2.2-1.8-4-4-4h-4c-2.2 0-4 1.8-4 4h-4v2h20v-2h-4zM12 8c0-1.2 0.8-2 2-2h4c1.2 0 2 0.8 2 2h-8z"></path>
            <path d="M8 24c0 2.2 1.8 4 4 4h8c2.2 0 4-1.8 4-4v-12h-16v12z"></path>
        </symbol>
        <symbol id="tcb-icon-merge" viewBox="0 0 32 32">
            <title>merge</title>
            <path d="M22.667 27.2l1.867-1.867-4.533-4.533-1.867 1.867zM10 10.667h4.667v7.467l-7.2 7.2 1.867 1.867 8-8v-8.533h4.667l-6-6z"></path>
        </symbol>
        <symbol id="tcb-icon-split" viewBox="0 0 32 32">
            <title>split</title>
            <path d="M18.667 5.333l3.067 3.067-3.867 3.867 1.867 1.867 3.867-3.867 3.067 3.067v-8zM13.333 5.333h-8v8l3.067-3.067 6.267 6.267v10.133h2.667v-11.2l-7.067-7.067z"></path>
        </symbol>
        <symbol id="tcb-icon-table" viewBox="0 0 32 32">
            <title>table</title>
            <path d="M-0.022-0.022v32.045h32.045v-32.045h-32.045zM30.522 10.261h-8.689v-8.783h8.689v8.783zM11.667 20.427v-8.666h8.667v8.666h-8.667zM20.333 21.927v8.596h-8.667v-8.596h8.667zM10.167 20.427h-8.689v-8.666h8.689v8.666zM11.667 10.261v-8.783h8.667v8.783h-8.667zM21.833 11.761h8.689v8.666h-8.689v-8.666zM10.167 1.478v8.783h-8.689v-8.783h8.689zM1.478 21.927h8.689v8.596h-8.689v-8.596zM21.833 30.522v-8.596h8.689v8.596h-8.689z"></path>
        </symbol>
        <symbol id="tcb-icon-image" viewBox="0 0 32 32">
            <title>image</title>
            <path d="M29.301 0.049h-26.602c-1.461 0-2.65 1.188-2.65 2.649v26.603c0 1.462 1.189 2.65 2.65 2.65h26.602c1.462 0 2.65-1.189 2.65-2.65v-26.603c0-1.461-1.188-2.649-2.65-2.649zM2.699 1.549h26.602c0.635 0 1.15 0.516 1.15 1.149v23.305l-7.881-8.152-4.18 4.288-6.324-6.262-10.517 10.375v-23.554c0-0.634 0.515-1.149 1.15-1.149zM1.549 29.301v-0.94l10.518-10.377 5.061 4.988 0.238 0.271-6.969 7.208h-7.698c-0.635 0-1.15-0.516-1.15-1.15zM29.301 30.451h-16.817l10.091-10.438 7.812 8.081c0.019 0.020 0.044 0.027 0.065 0.044v1.162c-0.001 0.635-0.517 1.151-1.151 1.151z"></path>
            <path d="M21.571 12.57c1.902 0 3.449-1.548 3.449-3.45s-1.547-3.449-3.449-3.449c-1.902 0-3.449 1.547-3.449 3.449s1.547 3.45 3.449 3.45zM21.571 7.171c1.075 0 1.949 0.875 1.949 1.949s-0.874 1.95-1.949 1.95-1.949-0.875-1.949-1.95c0-1.075 0.874-1.949 1.949-1.949z"></path>
        </symbol>
        <symbol id="tcb-icon-testimonials" viewBox="0 0 32 32">
            <title>testimonials</title>
            <path d="M20.405 7.832h-1.349l1.228-3.638h-2.096l-1.639 3.857v3.759h3.856z"></path>
            <path d="M14.997 7.832h-1.351l1.23-3.638h-2.097l-1.639 3.857v3.759h3.857z"></path>
            <path d="M27.237 17.257c0-0.414-0.336-0.75-0.75-0.75h-21.069c-0.414 0-0.75 0.336-0.75 0.75s0.336 0.75 0.75 0.75h21.069c0.414 0 0.75-0.336 0.75-0.75z"></path>
            <path d="M5.418 20.6c-0.414 0-0.75 0.336-0.75 0.75s0.336 0.75 0.75 0.75h14.543c0.414 0 0.75-0.336 0.75-0.75s-0.336-0.75-0.75-0.75h-14.543z"></path>
            <path d="M29.313 8.915h-6.739v1.5h6.739c0.626 0 1.136 0.51 1.136 1.137v13.617c0 0.627-0.51 1.137-1.136 1.137h-26.625c-0.627 0-1.137-0.51-1.137-1.137v-13.617c0-0.627 0.51-1.137 1.137-1.137h6.21v-1.5h-6.21c-1.454 0-2.637 1.183-2.637 2.637v13.617c0 1.454 1.183 2.637 2.637 2.637h26.626c1.453 0 2.636-1.183 2.636-2.637v-13.617c-0.001-1.454-1.183-2.637-2.637-2.637z"></path>
        </symbol>
        <symbol id="tcb-icon-custom_html" viewBox="0 0 32 32">
            <title>custom_html</title>
            <path d="M18.985 2.537c-0.409-0.086-0.803 0.176-0.887 0.583l-5.27 25.456c-0.084 0.406 0.177 0.803 0.583 0.887 0.051 0.011 0.102 0.016 0.153 0.016 0.348 0 0.66-0.243 0.733-0.598l5.27-25.457c0.084-0.406-0.176-0.803-0.582-0.887z"></path>
            <path d="M31.728 15.567l-6.549-5.415c-0.317-0.263-0.791-0.219-1.056 0.1-0.264 0.319-0.219 0.792 0.101 1.056l5.83 4.821-5.814 4.549c-0.326 0.256-0.384 0.727-0.129 1.053 0.148 0.19 0.368 0.288 0.592 0.288 0.161 0 0.324-0.052 0.461-0.159l6.549-5.124c0.179-0.14 0.285-0.354 0.288-0.58 0.002-0.227-0.098-0.444-0.273-0.589z"></path>
            <path d="M7.965 10.252c-0.265-0.318-0.737-0.364-1.056-0.1l-6.547 5.415c-0.175 0.145-0.275 0.361-0.272 0.588s0.109 0.44 0.288 0.58l6.547 5.124c0.137 0.107 0.3 0.159 0.462 0.159 0.223 0 0.443-0.099 0.591-0.288 0.255-0.326 0.198-0.797-0.128-1.053l-5.813-4.549 5.829-4.821c0.319-0.263 0.363-0.736 0.099-1.055z"></path>
        </symbol>
        <symbol id="tcb-icon-wordpress" viewBox="0 0 32 32">
            <title>wordpress</title>
            <path d="M16 0.353c-8.628 0-15.647 7.019-15.647 15.647s7.019 15.647 15.647 15.647c8.628 0 15.647-7.020 15.647-15.647s-7.019-15.647-15.647-15.647zM16 1.853c3.614 0 6.905 1.374 9.408 3.612-0.007-0.001-0.017-0.004-0.023-0.004-2.473-0.254-2.725 1.741-2.502 2.998 0.152 0.866 0.455 1.882 1.649 3.782 1.34 2.137 0.479 5.578 0.479 5.578l-2.15 7.129-4.834-15.58c0.467 0 0.861 0 1.105 0 0.77 0.007 0.984-0.431 0.938-0.717-0.020-0.088-0.1-0.347-0.326-0.448-0.375-0.159-1.779-0.051-3.477-0.051-1.707 0-3.020 0.002-4.038-0.010-0.164 0-0.47 0.145-0.474 0.478-0.004 0.354 0.388 0.807 0.885 0.782 0.535-0.027 1.043-0.020 1.043-0.020s0.019 0 0.055 0l2.057 6.274-2.964 9.337-4.953-15.492c0.45 0 0.831 0 1.074 0 0.765 0.004 0.984-0.431 0.933-0.713-0.010-0.094-0.096-0.352-0.331-0.447-0.37-0.162-1.772-0.057-3.473-0.057-0.956 0-1.472 0.001-1.924 0.002 2.528-3.868 6.888-6.433 11.843-6.433zM1.853 16c0-2.359 0.588-4.58 1.613-6.538 0.018 0.037 0.029 0.060 0.029 0.060s0.025-0.004 0.059-0.004l0.604 1.613 2.077 6.111v0.005l0.006 0.007 4.053 11.683c-4.964-2.201-8.441-7.167-8.441-12.937zM12.52 29.696l4.207-12.278 3.838 11.959c-1.434 0.491-2.967 0.77-4.565 0.77-1.203 0-2.364-0.167-3.48-0.451zM23.046 28.25c1.199-3.713 4.315-13.401 4.772-15.21 0.398-1.584 0.566-2.839 0.504-3.967 1.157 2.050 1.825 4.41 1.825 6.927 0 5.234-2.864 9.803-7.101 12.25z"></path>
        </symbol>
        <symbol id="tcb-icon-column" viewBox="0 0 32 32">
            <title>column</title>
            <path d="M18.5 0.3h-5c-1.2 0-2.3 1-2.3 2.3v27c0 1.2 1 2.3 2.3 2.3h5c1.2 0 2.3-1 2.3-2.3v-27c0-1.3-1.1-2.3-2.3-2.3zM19.3 29.5c0 0.4-0.3 0.8-0.8 0.8h-5c-0.4 0-0.8-0.3-0.8-0.8v-27c0-0.4 0.3-0.8 0.8-0.8h5c0.4 0 0.8 0.3 0.8 0.8v27z"></path>
            <path d="M29.5 0h-5c-1.2 0-2.3 1-2.3 2.3v27c0 1.2 1 2.3 2.3 2.3h5c1.2 0 2.3-1 2.3-2.3v-27c-0.1-1.3-1.1-2.3-2.3-2.3zM30.2 29.3c0 0.4-0.3 0.8-0.8 0.8h-5c-0.4 0-0.8-0.3-0.8-0.8v-27c0-0.4 0.3-0.8 0.8-0.8h5c0.4 0 0.8 0.3 0.8 0.8v27z"></path>
            <path d="M7.6 0h-5c-1.3 0-2.3 1-2.3 2.3v27c0 1.2 1 2.3 2.3 2.3h5c1.2 0 2.3-1 2.3-2.3v-27c-0.1-1.3-1.1-2.3-2.3-2.3zM8.3 29.3c0 0.4-0.3 0.7-0.7 0.7h-5c-0.4 0-0.8-0.3-0.8-0.8v-27c0-0.4 0.3-0.8 0.8-0.8h5c0.4 0 0.8 0.3 0.8 0.8v27.1z"></path>
        </symbol>
    </defs>
</svg>
