<svg style="position: absolute; width: 0; height: 0; overflow: hidden;" version="1.1" xmlns="http://www.w3.org/2000/svg" xmlns:xlink="http://www.w3.org/1999/xlink">
    <defs>
        <symbol id="tcb-icon-ultimatum" viewBox="0 0 32 32">
            <path fill="#424242" style="fill: var(--color3, #424242)" d="M16.826 28.949c-0.007 0.016-0.007 0.027-0.020 0.041h0.026l-0.006-0.041z"></path>
            <path fill="#424242" style="fill: var(--color3, #424242)" d="M16.673 28.949c-0.007 0.016-0.007 0.027-0.020 0.041h0.026l-0.006-0.041z"></path>
            <path fill="#59a31d" style="fill: var(--color2, #59a31d)"
                  d="M26.909 23.986c-0.018 0.016 0.027 0.016-0.051 0.016 0.020-0.016-0.027-0.016 0.051-0.016zM29.339 22.4c-0.922 0-2.854 0.35-3.613 0.502-0.723 0.143-1.668 0.344-2.371 0.619-0.539 0.209-1.055 0.418-1.574 0.678-0.482 0.242-0.955 0.524-1.395 0.842l-0.432 0.318c-0.076 0.057-0.131 0.109-0.207 0.168-0.072 0.059-0.135 0.123-0.203 0.174-0.15 0.113-0.277 0.281-0.42 0.393-0.145 0.113-0.635 0.672-0.762 0.84l-0.461 0.652c-0.445 0.674-0.789 1.479-0.921 2.277-0.046 0.293-0.042 0.447-0.077 0.676-0.001 0.010-0.003 0.021-0.005 0.031v0.354c0.031 0.43 0.148 0.926 0.148 0.965h0.033c0.025-0.303 0.486-1.381 0.6-1.607l0.283-0.531c0.172-0.285 0.353-0.566 0.555-0.832 0.133-0.178 0.271-0.359 0.43-0.52 0.033-0.037 0.033-0.043 0.064-0.082 0.162-0.195 0.375-0.373 0.553-0.555l0.6-0.514c0.023-0.017 0.047-0.033 0.074-0.053l1.053-0.744c0.318-0.188 0.621-0.396 0.943-0.576 0.289-0.162 0.729-0.393 1.010-0.508l0.76-0.338c0.393-0.154 0.789-0.338 1.193-0.469l0.82-0.291c0.146-0.049 0.273-0.090 0.416-0.139 0.123-0.041 0.297-0.117 0.426-0.129l-0.904 0.42c-0.31 0.125-0.871 0.42-1.195 0.584l-0.871 0.467c-0.275 0.16-0.566 0.322-0.836 0.502l-0.801 0.553c-0.051 0.037-0.072 0.061-0.119 0.094-0.027 0.021-0.039 0.029-0.066 0.049l-0.174 0.15c-0.033 0.027-0.035 0.024-0.064 0.053-0.023 0.020-0.037 0.033-0.059 0.055l-0.758 0.795-0.842 1.164-0.338 0.563c-0.029 0.051-0.049 0.090-0.074 0.137-0.168 0.291-0.318 0.592-0.457 0.899l-0.066 0.164c0.227 0.051 1.475 0.039 1.777-0.004l0.559-0.061c0.916-0.1 1.971-0.354 2.777-0.754 0.039-0.018 0.072-0.031 0.113-0.047 0.031-0.014 0.066-0.033 0.098-0.049 0.041-0.021 0.059-0.035 0.102-0.061l0.203-0.109c0.137-0.072 0.26-0.158 0.381-0.238 0.144-0.098 0.299-0.205 0.428-0.322 0.189-0.17 0.393-0.35 0.551-0.547 0.023-0.029 0.045-0.045 0.068-0.076 0.258-0.318 0.467-0.666 0.693-1.006 0.334-0.498 0.644-1.008 0.916-1.549 0.582-1.168 0.746-1.315 1.477-2.231 0.031-0.035 0.031-0.043 0.066-0.078l0.391-0.377c0.162-0.141 0.369-0.287 0.572-0.361 0.18-0.066 0.271-0.1 0.52-0.1-0.174-0.258-0.91-0.275-1.387-0.279h-0.201zM26.909 23.986v0z"></path>
            <path fill="#424242" style="fill: var(--color3, #424242)" d="M6.567 27.001c2.243 1.711 4.916 2.693 7.73 2.84l0.078-1.498c-2.511-0.131-4.896-1.007-6.898-2.535l-0.91 1.193z"></path>
            <path fill="#424242" style="fill: var(--color3, #424242)" d="M27.471 15.351l1.498-0.065c-0.047-1.095-0.224-2.184-0.525-3.235l-1.441 0.413c0.268 0.937 0.425 1.909 0.468 2.887z"></path>
            <path fill="#424242" style="fill: var(--color3, #424242)" d="M28.028 10.824c-0.459-1.174-1.075-2.279-1.831-3.287l-1.199 0.9c0.675 0.899 1.224 1.885 1.634 2.932l1.396-0.545z"></path>
            <path fill="#424242" style="fill: var(--color3, #424242)" d="M23.643 4.927l-0.926 1.18c0.548 0.431 1.065 0.912 1.537 1.431l1.109-1.009c-0.527-0.582-1.106-1.12-1.72-1.602z"></path>
            <path fill="#424242" style="fill: var(--color3, #424242)" d="M21.69 3.622c-0.048-0.020-0.133-0.055-0.377-0.179l-0.676 1.339c0.311 0.157 0.418 0.201 0.468 0.219 0.030 0.018 0.075 0.048 0.175 0.113l0.486 0.315 0.813-1.261-0.479-0.311c-0.309-0.201-0.313-0.195-0.41-0.235z"></path>
            <path fill="#424242" style="fill: var(--color3, #424242)" d="M2.575 15.905c0-6.772 5.437-12.289 12.174-12.44v1.827l4.487-2.59-4.487-2.591v1.854c-7.564 0.152-13.674 6.341-13.674 13.94-0.001 3.911 1.657 7.667 4.548 10.307l1.012-1.107c-2.581-2.357-4.061-5.709-4.060-9.2z"></path>
            <path fill="#424242" style="fill: var(--color3, #424242)"
                  d="M18.775 11.604l-3.516 3.517c-0.076-0.011-0.151-0.023-0.231-0.023-0.171 0-0.333 0.034-0.487 0.082l-3.435-3.434-1.061 1.060 3.434 3.434c-0.049 0.155-0.083 0.317-0.083 0.488 0 0.079 0.012 0.155 0.024 0.23l-0.289 0.289 1.414 1.414 0.319-0.319c0.054 0.006 0.107 0.017 0.163 0.017 0.171 0 0.333-0.034 0.489-0.083l0.171 0.172 1.061-1.061-0.171-0.172c0.049-0.154 0.083-0.316 0.083-0.487 0-0.056-0.011-0.109-0.017-0.165l3.546-3.546-1.414-1.413z"></path>
            <path fill="#424242" style="fill: var(--color3, #424242)" d="M26.158 21.484c0.063-0.013 0.131-0.027 0.19-0.039 0.374-0.075 0.959-0.185 1.61-0.295 0.543-1.338 0.878-2.745 0.985-4.203l-1.496-0.11c-0.12 1.632-0.557 3.192-1.289 4.647z"></path>
        </symbol>
    </defs>
</svg>
