<?xml version="1.0" standalone="no"?>
<!DOCTYPE svg PUBLIC "-//W3C//DTD SVG 1.1//EN" "http://www.w3.org/Graphics/SVG/1.1/DTD/svg11.dtd" >
<svg xmlns="http://www.w3.org/2000/svg">
<metadata>Generated by IcoMoon</metadata>
<defs>
<font id="aepos" horiz-adv-x="1024">
<font-face units-per-em="1024" ascent="960" descent="-64" />
<missing-glyph horiz-adv-x="1024" />
<glyph unicode="&#x20;" horiz-adv-x="512" d="" />
<glyph unicode="&#xe605;" glyph-name="uniE605" d="M805.792 705.376h-168.416v66.064c0 69.088-56.192 125.296-125.28 125.296s-125.296-56.208-125.296-125.296v-66.064h-158.848l-40.624-706.112h649.328l-30.864 706.112zM415.008 771.44c0 53.52 43.568 97.088 97.088 97.088 53.536 0 97.072-43.568 97.072-97.088v-66.064h-194.16v66.064zM254.576 677.184h132.224v-66.112h28.208v66.112h194.176v-66.112h28.208v66.112h141.44l28.368-649.776h-590l37.376 649.776z" />
<glyph unicode="&#xe61b;" glyph-name="uniE61B" d="M951.616 464.144h-817.376l248.496 248.496-22.848 22.848-287.504-287.488 287.504-287.504 22.848 22.816-248.512 248.544h817.392z" />
<glyph unicode="&#xe61c;" glyph-name="uniE61C" d="M982.336 877.328h-20.944v-659.28h-885.552l166.608 166.608-11.872 11.872-188.912-188.944 188.912-188.912 11.872 11.856-166.592 166.576h906.48z" />
<glyph unicode="&#xe628;" glyph-name="documents42" d="M829.736 450.965v509.035h-645.003v-509.035h-143.936v-514.965h942.405v514.965h-153.467zM222.863 921.871h568.747v-470.909h-160.464v-101.020h-238.304v101.020h-169.979v470.909zM945.076-25.874h-866.15v438.709h275.785v-101.020h314.56v101.020h275.804v-438.709zM289.569 825.901h435.297v-38.129h-435.297v38.129zM289.569 749.646h435.297v-38.129h-435.297v38.129zM289.569 673.387h435.297v-38.129h-435.297v38.129zM289.569 597.131h435.297v-38.129h-435.297v38.129z" />
<glyph unicode="&#xe629;" glyph-name="uniE629" d="M162.709 944.239v-217.278h-140.234v-778.83h974.68v996.109h-834.441zM162.709-22.83h-111.194v720.75h111.194v-720.75zM968.109-22.83h-776.363v938.028h776.363v-938.028zM300.184 726.961h559.492v-29.041h-559.492v29.041zM300.184 610.802h559.492v-29.041h-559.492v29.041zM300.184 494.641h559.492v-29.041h-559.492v29.041zM300.184 378.475h559.492v-29.041h-559.492v29.041zM300.184 262.317h559.492v-29.041h-559.492v29.041zM300.184 146.154h559.492v-29.041h-559.492v29.041z" />
<glyph unicode="&#xe900;" glyph-name="printer63" d="M832 960h-640v-448h640v448zM768 576h-512v320h512v-320zM896 512v-64h-768v64c-70.688 0-128-57.312-128-128v-384c0-35.376 28.626-64 64-64h896c35.376 0 64 28.624 64 64v384c0 70.688-57.312 128-128 128zM832 64c0-35.376-28.624-64-64-64h-512c-35.376 0-64 28.624-64 64v64h640v-64zM928 256h-64c-17.688 0-32 14.312-32 32s14.312 32 32 32h64c17.688 0 32-14.312 32-32s-14.312-32-32-32zM320 832h384v-64h-384v64zM320 704h384v-64h-384v64z" />
<glyph unicode="&#xe901;" glyph-name="power" d="M640 813.412v-135.958c36.208-15.804 69.5-38.408 98.274-67.18 60.44-60.44 93.726-140.8 93.726-226.274 0-85.472-33.286-165.834-93.726-226.274-60.442-60.44-140.798-93.726-226.274-93.726s-165.834 33.286-226.274 93.726c-60.44 60.44-93.726 140.802-93.726 226.274 0 85.474 33.286 165.834 93.726 226.274 28.774 28.774 62.068 51.378 98.274 67.182v135.956c-185.048-55.080-320-226.472-320-429.412 0-247.424 200.578-448 448-448 247.426 0 448 200.576 448 448 0 202.94-134.95 374.332-320 429.412zM448 960h128v-512h-128v512z" />
<glyph unicode="&#xe902;" glyph-name="floppy-disk-save" d="M81.882-64h860.239c42.68 0 77.282 34.602 77.282 77.282v869.436c0 42.68-34.602 77.282-77.282 77.282h-134.26v-297.407h-610.112v297.407h-115.866c-42.68 0-77.286-34.602-77.286-77.282v-869.436c0-42.68 34.606-77.282 77.286-77.282zM174.755 418.247c0 42.68 34.602 77.282 77.282 77.282h522.994c42.68 0 77.282-34.602 77.282-77.282v-308.379c0-42.68-34.602-77.282-77.282-77.282h-522.991c-42.68 0-77.282 34.602-77.282 77.282v308.379zM339.756 128.474h347.543c35.956 0 65.091 29.135 65.091 65.091v140.945c0 35.956-29.135 65.091-65.091 65.091h-347.543c-35.956 0-65.091-29.135-65.091-65.091v-140.945c0-35.956 29.135-65.091 65.091-65.091zM576.398 882.718v-86.944c0-42.68 30.276-77.282 67.624-77.282s67.624 34.602 67.624 77.282v86.944c-0.004 42.68-30.279 77.282-67.627 77.282s-67.62-34.602-67.62-77.282z" />
<glyph unicode="&#xe903;" glyph-name="envelope-back-view-outline" d="M0 776.017v-656.034h1024v656.034h-1024zM940.398 731.607l-428.382-357.017-428.446 357.017h856.827zM44.442 164.425v541.966l467.574-389.608 467.542 389.608v-541.998l-935.116 0.032z" />
<glyph unicode="&#xe904;" glyph-name="sale" d="M974.684 842.529h-758.581c-18.691 0-35.754-10.554-44.089-27.272l-161.609-323.119c-13.858-27.765-13.858-60.462 0-88.227l161.56-323.169c8.334-16.718 25.447-27.272 44.089-27.272h758.581c27.223 0 49.316 22.094 49.316 49.316v690.426c0.049 27.223-22.044 49.316-49.267 49.316zM407.548 669.923c54.494 0 98.632-44.138 98.632-98.632s-44.138-98.632-98.632-98.632-98.632 44.138-98.632 98.632c0 54.494 44.138 98.632 98.632 98.632zM703.445 176.761c-54.494 0-98.632 44.138-98.632 98.632s44.138 98.632 98.632 98.632 98.632-44.138 98.632-98.632c0-54.494-44.187-98.632-98.632-98.632zM378.649 176.761l-69.733 69.733 423.428 423.428 69.733-69.733-423.428-423.428z" />
<glyph unicode="&#xe905;" glyph-name="percent" d="M0 10.582l949.418 949.418 74.582-74.582-949.418-949.418-74.582 74.582zM169.155 632.609c87.267 0 158.236 70.969 158.236 158.236s-70.969 158.236-158.236 158.236-158.236-70.969-158.236-158.236 70.969-158.236 158.236-158.236zM854.845 263.391c-87.267 0-158.236-70.969-158.236-158.236s70.969-158.236 158.236-158.236 158.236 70.969 158.236 158.236-70.969 158.236-158.236 158.236z" />
<glyph unicode="&#xe906;" glyph-name="invoice" d="M866.46 960h-708.922c-10.876 0-19.692-8.818-19.692-19.692v-984.614c0-7.096 3.818-13.64 9.99-17.134 6.174-3.5 13.752-3.398 19.834 0.25l87.106 52.264 68.178-51.134c6.404-4.808 15.076-5.25 21.948-1.13l87.106 52.264 68.178-51.134c6.402-4.808 15.080-5.25 21.948-1.13l87.106 52.264 68.178-51.134c6.404-4.808 15.080-5.25 21.948-1.13l87.106 52.264 68.178-51.134c3.474-2.606 7.632-3.938 11.818-3.938 3.002 0 6.016 0.688 8.806 2.078 6.67 3.336 10.884 10.16 10.884 17.616v984.612c-0.004 10.874-8.822 19.692-19.698 19.692zM846.768-4.922l-47.262 35.448c-6.406 4.808-15.084 5.254-21.948 1.13l-87.106-52.264-68.178 51.134c-3.486 2.616-7.644 3.938-11.818 3.938-3.496 0-7-0.928-10.13-2.808l-87.106-52.264-68.178 51.134c-6.406 4.808-15.082 5.254-21.948 1.13l-87.106-52.264-68.178 51.134c-6.406 4.808-15.084 5.254-21.948 1.13l-68.636-41.182v930.142h669.538v-925.538zM354.462 782.77h-98.462c-10.874 0-19.692-8.818-19.692-19.692 0-10.876 8.818-19.692 19.692-19.692h98.462c10.876 0 19.692 8.818 19.692 19.692s-8.818 19.692-19.692 19.692zM728.614 684.308h-98.462c-10.876 0-19.692-8.818-19.692-19.692 0-10.876 8.818-19.692 19.692-19.692h98.462c10.876 0 19.692 8.818 19.692 19.692 0.002 10.874-8.816 19.692-19.692 19.692zM728.614 585.846h-98.462c-10.876 0-19.692-8.818-19.692-19.692 0-10.876 8.818-19.692 19.692-19.692h98.462c10.876 0 19.692 8.818 19.692 19.692 0.002 10.876-8.816 19.692-19.692 19.692zM728.614 487.386h-98.462c-10.876 0-19.692-8.818-19.692-19.692 0-10.876 8.818-19.692 19.692-19.692h98.462c10.876 0 19.692 8.818 19.692 19.692 0.002 10.874-8.816 19.692-19.692 19.692zM728.614 388.924h-98.462c-10.876 0-19.692-8.818-19.692-19.692 0-10.876 8.818-19.692 19.692-19.692h98.462c10.876 0 19.692 8.818 19.692 19.692 0.002 10.874-8.816 19.692-19.692 19.692zM728.614 290.462h-98.462c-10.876 0-19.692-8.818-19.692-19.692 0-10.876 8.818-19.692 19.692-19.692h98.462c10.876 0 19.692 8.818 19.692 19.692 0.002 10.876-8.816 19.692-19.692 19.692zM531.692 684.308h-275.692c-10.874 0-19.692-8.818-19.692-19.692 0-10.876 8.818-19.692 19.692-19.692h275.692c10.876 0 19.692 8.818 19.692 19.692s-8.816 19.692-19.692 19.692zM531.692 585.846h-275.692c-10.874 0-19.692-8.818-19.692-19.692 0-10.876 8.818-19.692 19.692-19.692h275.692c10.876 0 19.692 8.818 19.692 19.692 0 10.876-8.816 19.692-19.692 19.692zM531.692 487.386h-275.692c-10.874 0-19.692-8.818-19.692-19.692 0-10.876 8.818-19.692 19.692-19.692h275.692c10.876 0 19.692 8.818 19.692 19.692s-8.816 19.692-19.692 19.692zM531.692 388.924h-275.692c-10.874 0-19.692-8.818-19.692-19.692 0-10.876 8.818-19.692 19.692-19.692h275.692c10.876 0 19.692 8.818 19.692 19.692s-8.816 19.692-19.692 19.692zM531.692 290.462h-275.692c-10.874 0-19.692-8.818-19.692-19.692 0-10.876 8.818-19.692 19.692-19.692h275.692c10.876 0 19.692 8.818 19.692 19.692 0 10.876-8.816 19.692-19.692 19.692z" />
<glyph unicode="&#xe907;" glyph-name="ae-font" horiz-adv-x="1460" d="M1243.626 446.536v65.442c0 90.718-24.307 162.651-72.902 216.108s-114.692 80.034-198.292 80.034c-83.599 0-153.572-32.731-210.282-98.173-9.078-10.698-17.502-21.705-25.271-33.367-4.858 11.99-10.698 23.324-17.819 34.35-9.078 13.609-19.758 25.926-32.075 36.933-16.847 14.9-35.641 26.89-56.055 35.969-17.502 7.772-35.969 13.609-54.763 17.502-13.609 2.911-27.545 4.858-41.473 5.835-6.804 0.653-13.281 0.653-20.086 0.653-0.653 0-0.969-0.328-1.619 0-7.457 0-15.228 0-22.685 0-0.653-0.328-0.969 0-1.619 0-5.513 0-11.016 0-16.52-0.328-9.394-0.653-17.502-1.619-25.598-2.591-18.794-2.591-36.933-6.804-55.079-12.638-13.936-4.53-27.545-10.37-40.499-17.175-10.698-5.513-20.741-11.662-30.456-18.466-15.228-10.698-29.164-23-41.79-36.933-11.016-12.317-20.413-25.926-27.545-40.826-6.477-13.609-10.698-27.866-12.954-42.446-0.653-5.185-1.292-10.698-1.619-15.882-0.328-3.566 0-7.132 0-11.016 0-0.969 0.328-1.947 0.653-3.238 0.653-1.619 1.619-2.591 3.238-2.591 0.969 0 1.947-0.328 2.591-0.328 12.638 0 24.943 0 37.588-0.328 5.835-0.328 11.662 0 17.502 0 2.591 0 5.513 0 8.096-0.328s3.566 0.328 3.238 3.238c0 4.53 0.328 9.078 0.969 13.609 1.619 11.99 4.858 23.324 10.043 34.022 7.457 15.556 18.139 28.509 31.11 39.851 15.556 13.609 32.731 23.979 51.835 31.748 15.228 6.15 31.11 10.37 47.631 12.954 14.26 2.274 28.509 3.238 43.095 3.566 6.804 0 13.609-0.328 20.741-0.653 5.513-0.328 11.016-0.653 16.197-1.292 16.52-1.947 32.731-5.513 48.276-11.334 12.638-4.858 24.622-10.698 35.641-18.466 9.078-6.15 17.175-13.281 24.622-21.705 4.858-5.185 9.078-11.016 12.954-16.847 6.804-10.37 11.662-21.705 15.556-33.367 4.858-15.556 7.457-31.425 7.457-47.631 0.328-29.804 0-59.945 0-89.749 0-3.238 0.328-2.911-2.911-2.911-47.631 0-94.934 0-142.565 0-8.096 0-15.882 0.328-23.979-0.328-5.513-0.328-11.016-0.328-16.52-0.653-7.132-0.328-14.575-0.969-21.705-1.619-11.99-0.969-23.979-2.591-35.969-4.53-21.705-3.566-43.095-8.751-63.823-15.882-12.317-4.213-24.307-9.394-35.969-14.9-11.662-5.835-22.685-12.317-33.367-19.758-14.575-10.043-28.182-21.705-39.851-34.986s-21.063-27.545-28.182-43.41c-9.078-20.741-14.26-42.446-14.26-65.442v0c0 0 0-0.328 0-0.328s0 0 0 0c0-5.513 0-11.016 0-16.52 0-4.213 0.328-8.424 0.328-12.954 0.328-7.772 1.292-15.228 2.591-23 2.274-12.954 5.513-25.598 10.043-37.913 4.213-11.662 9.715-23 16.52-33.367 8.751-13.281 18.794-25.271 30.784-35.969 10.698-9.394 22.36-17.502 35.314-23.979 15.556-8.096 32.075-13.936 49.25-17.819 19.122-4.53 38.229-6.804 58.001-6.804 7.772 0 15.556-0.328 23 0 6.804 0.328 13.609 0 20.086 0.328 7.772 0.328 15.228 0.653 23 1.619 12.638 1.292 24.943 3.238 37.26 6.15 23.979 5.835 46.976 14.26 68.686 26.244 22.685 12.317 42.773 27.866 61.24 46.012 8.096 8.096 15.882 16.52 23.324 25.271 14.575 17.502 27.218 36.291 37.588 56.701 0.653 1.619 1.619 1.947 3.238 1.947 0 0 0.328 0 0.328 0 12.638-23.979 27.866-46.338 46.338-67.064 57.018-64.15 129.284-96.226 216.758-96.226 103.030 0 183.392 29.488 241.064 88.457l-32.731 52.816c-48.922-51.197-118.586-76.795-208.662-76.795-67.389 0-121.824 25.926-163.301 77.759s-62.204 117.615-62.204 197.318v18.466h489.246zM827.61 678.526c38.552 42.773 87.158 64.15 145.476 64.15s105.305-20.086 140.946-59.945 53.457-90.718 53.457-152.28h-0.328v-19.122h-405.656l-1.292 3.566c6.15 66.425 28.837 120.859 67.389 163.617zM676.622 419.323c0-10.043-0.653-22.032-1.947-33.694-4.53-43.737-16.197-85.536-38.88-123.443-14.575-24.622-32.075-46.338-54.108-64.478-7.457-6.15-15.228-11.662-23.652-16.52-6.477-3.894-13.609-6.15-20.741-8.751-16.52-6.15-33.367-10.37-50.869-12.954-18.139-2.591-35.969-3.566-54.435-2.591-18.139 0.969-35.969 3.238-53.457 8.751-16.847 5.185-32.075 13.281-45.356 24.943-19.122 16.847-31.748 37.588-37.26 62.531-2.911 13.609-3.894 27.545-2.911 41.473 1.947 29.488 13.609 54.763 33.694 76.14 17.819 19.122 38.88 33.047 62.531 43.737 17.175 7.772 34.986 13.281 53.142 17.175 12.638 2.591 25.271 4.53 37.913 5.835 14.26 1.292 28.509 1.947 42.773 1.947 50.542 0 101.083 0 151.632 0 1.619 0 1.947-0.328 1.947-1.947 0-5.513 0-10.698 0-18.139z" />
<glyph unicode="&#xe908;" glyph-name="gift" d="M545.392 399.316h366.236v-463.316h-366.236v463.316zM112.372 399.316h366.236v-463.316h-366.236v463.316zM797.524 771.136c9.906 18.15 15.544 38.948 15.544 61.042 0.002 70.482-57.34 127.822-127.82 127.822-52.13 0-105.47-26.936-146.336-73.902-10.114-11.622-19.122-24.112-26.912-37.12-7.79 13.008-16.798 25.498-26.912 37.12-40.866 46.966-94.204 73.902-146.336 73.902-70.48 0-127.822-57.342-127.822-127.822 0-22.092 5.636-42.892 15.544-61.042h-174.074v-305.038h426.208v305.038h66.782v-305.038h426.21v305.038h-174.076zM338.752 771.136c-33.656 0-61.040 27.384-61.040 61.042s27.384 61.040 61.040 61.040c60.598 0 118.212-61.986 134.978-122.080h-134.978zM685.248 771.136h-134.978c16.766 60.096 74.38 122.080 134.978 122.080 33.656 0 61.040-27.384 61.040-61.040-0.002-33.658-27.384-61.040-61.040-61.040z" />
<glyph unicode="&#xe909;" glyph-name="return1" d="M732.843 648.586h-656.882l184.533 184.533c8.458 8.905 8.237 22.928-0.444 31.386-8.681 8.237-22.26 8.237-30.942 0l-222.597-222.597c-8.681-8.681-8.681-22.705 0-31.386l222.597-222.597c8.905-8.458 22.928-8.237 31.386 0.444 8.237 8.681 8.237 22.26 0 30.942l-184.533 184.757h656.882c136.006 0 246.638-119.758 246.638-267.116s-110.63-267.116-246.638-267.116h-197.889c-11.129 0-21.146-8.013-22.705-18.921-2.003-13.8 8.681-25.599 22.037-25.599h198.557c160.493 0 291.157 139.791 291.157 311.635s-130.664 311.637-291.157 311.637z" />
<glyph unicode="&#xe90a;" glyph-name="gift-2" d="M1001 770.6h-205.6c12.8 17.2 20.4 38.8 20.4 62.4 0 64.6-54 104-104 104-27 0-54-12.4-72.8-31.2l-127-127-127 127c-18.8 20.8-45.8 31.2-72.8 31.2-50 0-104-39.6-104-104 0-23.6 7.6-45.2 20.4-62.4h-205.6v-247.6h83.2v-563.8h811.4v563.8h83.2v247.6zM668.2 876.6c14.6 14.6 33.2 18.8 43.6 18.8 31.2 0 62.4-22.8 62.4-62.4 0-35.4-27-62.4-62.4-62.4h-149.6l106 106zM250 833c0 39.6 31.2 62.4 62.4 62.4 10.4 0 27-4.2 43.6-18.8l106.2-106h-149.8c-35.4 0-62.4 27-62.4 62.4zM64.8 564.6v164.4h426.6v-164.4h-426.6zM148 523h343.4v-522.2h-343.4v522.2zM876.4 0.6h-343.4v522.4h343.4v-522.4zM959.6 564.6h-426.6v164.4h426.6v-164.4z" />
<glyph unicode="&#xe90b;" glyph-name="money-bag-with-dollar-symbol" d="M581.647 279.781c-3.824 4.188-8.662 7.32-13.662 9.93-10.886 5.677-22.792 9.12-34.613 12.228v-91.601c19.187 2.169 41.215 9.132 51.289 27.045v0c4.809 8.556 5.766 19.069 3.807 28.594-1.063 5.161-3.258 9.898-6.821 13.804zM584.56 237.208c0.039 0.065 0.060 0.106 0.101 0.176v0c-0.034-0.058-0.067-0.116-0.101-0.176zM443.374 426.213c-3.299-4.817-5.368-10.289-5.939-16.105-0.571-5.829-0.251-12.313 1.964-17.799 2.108-5.229 6.525-9.089 11.084-12.197 5.115-3.479 10.742-6.197 16.472-8.501 4.807-1.935 10.214-3.785 16.043-5.573v82.888c-14.725-3.142-30.813-9.85-39.622-22.712zM585.042 238.060c-0.12-0.214-0.251-0.439-0.378-0.675v0c0.149 0.275 0.267 0.477 0.378 0.675zM585.524 238.918c0.031 0.058 0.036 0.063 0 0v0zM565.643 737.194c77.898 65.438 129.948 212.86 97.916 219.308-42.562 8.571-134.986-29.011-179.659-35.632-63.361-7.65-132.37 68.708-171.105 26.146-31.495-34.606 22.58-160.455 107.18-215.281-252.403-124.052-607.171-746.803 11.742-791.989 856.372-62.525 427.556 676.563 133.926 797.449zM639.189 246.063c-2.634-24.278-15.5-46.234-34.733-61.139-20.307-15.739-45.779-23.059-71.086-25.11v-26.825c0-7.178-3.135-14.12-8.508-18.871-7.385-6.535-18.238-8.147-27.201-4.017-8.85 4.072-14.664 13.149-14.664 22.888v29.319c-4.34 0.824-8.648 1.805-12.905 2.973-23.652 6.498-45.591 19.165-61.616 37.907-7.983 9.342-14.491 19.941-18.992 31.384-1.176 2.99-2.224 6.036-3.142 9.115-0.831 2.788-1.689 5.621-1.985 8.527-0.499 4.874 0.467 9.848 2.74 14.19 4.67 8.932 14.51 14.327 24.558 13.431 9.889-0.877 18.556-7.739 21.669-17.165 0.959-2.903 1.61-5.879 2.687-8.751 1.067-2.853 2.357-5.626 3.872-8.267 2.993-5.2 6.742-9.995 11.060-14.156 8.901-8.576 20.238-14.149 32.056-17.464v99.663c-23.11 5.983-46.964 13.71-66.047 28.548-9.274 7.214-17.144 16.178-22.298 26.787-5.438 11.197-7.691 23.671-7.783 36.061-0.094 12.58 2.296 25.049 7.544 36.512 4.915 10.732 11.992 20.368 20.669 28.355 18.553 17.076 43.198 26.601 67.917 30.1v27.847c0 7.176 3.135 14.12 8.508 18.871 7.388 6.532 18.235 8.147 27.201 4.017 8.848-4.075 14.664-13.149 14.664-22.888v-27.695c3.294-0.414 6.578-0.911 9.845-1.504 24.274-4.393 48.015-14.416 65.766-31.917 8.409-8.289 15.293-18.165 20.134-28.936 1.352-3.005 2.535-6.079 3.559-9.214 0.954-2.923 1.913-5.932 2.369-8.983 0.728-4.87-0.014-9.901-2.099-14.356-4.27-9.127-13.845-14.939-23.919-14.508-9.898 0.431-18.867 6.877-22.411 16.129-1.055 2.752-1.583 5.665-2.66 8.409-1.087 2.778-2.494 5.429-4.115 7.932-3.152 4.867-7.236 9.041-11.898 12.479-10.096 7.455-22.341 11.339-34.577 13.51v-95.374c14.541-3.482 29.095-7.279 43.027-12.773 21.057-8.303 41.010-21.035 52.504-41.111-1.783 3.128-3.518 6.176 0.060-0.104 3.513-6.168 1.836-3.229 0.072-0.137 9.144-16.115 12.149-35.384 10.161-53.689zM584.293 236.735c-0.147-0.263-0.275-0.494-0.376-0.67 0.087 0.152 0.217 0.381 0.376 0.67z" />
<glyph unicode="&#xe90c;" glyph-name="return" d="M769.666 598.603c-1.396 0-697.465 0-697.465 0l146.652 164.374c9.51 10.66 8.578 27.010-2.082 36.52-10.656 9.508-27.010 8.58-36.52-2.082l-165.164-185.12c-20.118-22.556-20.116-56.564 0.002-79.114l165.164-185.122c5.112-5.73 12.194-8.646 19.308-8.646 6.128 0 12.278 2.166 17.212 6.564 10.66 9.51 11.59 25.86 2.082 36.52l-146.652 164.376c0 0 696.067 0 697.465 0 111.716 0 202.6-90.888 202.6-202.6s-90.886-202.6-202.6-202.6h-123.16c-14.286 0-25.866-11.582-25.866-25.866s11.58-25.866 25.866-25.866h123.16c140.24 0 254.332 114.092 254.332 254.332-0.002 140.238-114.094 254.33-254.334 254.33z" />
<glyph unicode="&#xe90d;" glyph-name="reload" d="M234.521 756.938c151.181 136.753 377.431 138.844 530.703 14.010l-121.489-4.6c-15.683-0.627-27.811-13.592-27.183-29.274 0.627-15.265 13.173-27.183 28.229-27.183 0.418 0 0.627 0 1.046 0l186.52 6.9c15.265 0.627 27.183 12.964 27.183 28.229v2.091c0 0.418 0 0.627 0 1.046v0.209l-6.9 184.429c-0.627 15.683-13.801 27.811-29.274 27.183-15.683-0.627-27.811-13.592-27.183-29.274l4.391-115.634c-75.904 62.104-169.373 98.069-269.325 103.088-123.789 6.273-242.768-36.175-334.565-119.398-126.298-114.379-179.829-288.353-139.681-453.962 3.137-12.964 14.637-21.538 27.392-21.538 2.3 0 4.391 0.209 6.691 0.836 15.055 3.764 24.465 19.028 20.701 34.084-35.129 145.536 11.71 298.39 122.743 398.759zM967.009 551.181c-3.764 15.055-19.028 24.465-34.084 20.701s-24.465-19.028-20.701-34.084c35.338-145.536-11.71-298.39-122.743-398.759-77.995-70.468-175.856-105.179-273.298-105.179-93.051 0-185.892 31.575-260.751 93.887l122.953 11.082c15.474 1.464 26.974 15.055 25.511 30.738s-15.055 26.974-30.738 25.511l-185.892-16.728c-15.474-1.464-26.974-15.055-25.511-30.738l16.728-185.892c1.255-14.637 13.592-25.72 28.020-25.72 0.836 0 1.673 0 2.509 0.209 15.474 1.464 26.974 15.055 25.511 30.738l-10.037 113.125c75.904-61.476 168.955-97.233 268.279-102.251 7.946-0.418 15.892-0.627 23.629-0.627 115.216 0 224.786 42.239 310.936 120.025 126.298 114.379 179.829 288.144 139.681 453.962z" />
<glyph unicode="&#xe90e;" glyph-name="ae2017" horiz-adv-x="2109" d="M765.44 893.44c76.8-46.080 138.24-107.52 181.76-184.32 46.080-76.8 66.56-163.84 66.56-261.12v-412.16c0-28.16-7.68-48.64-25.6-66.56s-40.96-25.6-66.56-25.6c-28.16 0-48.64 7.68-66.56 25.6s-25.6 40.96-25.6 66.56v69.12c-43.52-53.76-94.72-94.72-156.16-122.88-61.44-30.72-128-43.52-199.68-43.52-89.6 0-168.96 23.040-240.64 66.56s-128 104.96-168.96 184.32c-43.52 74.24-64 161.28-64 258.56 0 94.72 23.040 181.76 66.56 261.12 43.52 76.8 104.96 138.24 184.32 184.32 76.8 46.080 163.84 66.56 258.56 66.56s179.2-23.040 256-66.56zM675.84 148.48c48.64 30.72 89.6 71.68 117.76 122.88s43.52 110.080 43.52 176.64-15.36 122.88-43.52 176.64c-28.16 53.76-66.56 94.72-117.76 125.44-48.64 30.72-104.96 46.080-166.4 46.080s-117.76-15.36-166.4-46.080c-48.64-30.72-89.6-71.68-117.76-125.44s-43.52-112.64-43.52-176.64 15.36-122.88 43.52-176.64c28.16-51.2 69.12-92.16 117.76-122.88s104.96-46.080 166.4-46.080c61.44 0 115.2 15.36 166.4 46.080zM2083.84 407.040c-15.36-15.36-35.84-23.040-61.44-23.040h-698.88c12.8-87.040 53.76-156.16 117.76-207.36 64-53.76 143.36-79.36 238.080-79.36 35.84 0 74.24 7.68 115.2 20.48s71.68 30.72 99.84 48.64c17.92 12.8 38.4 20.48 61.44 20.48s40.96-5.12 56.32-17.92c23.040-17.92 33.28-38.4 33.28-61.44s-10.24-40.96-30.72-56.32c-40.96-33.28-94.72-61.44-156.16-81.92-66.56-23.040-125.44-33.28-181.76-33.28-99.84 0-192 23.040-271.36 66.56s-143.36 104.96-186.88 181.76c-46.080 76.8-66.56 166.4-66.56 263.68s20.48 186.88 64 263.68c43.52 76.8 102.4 138.24 176.64 181.76 76.8 43.52 161.28 66.56 256 66.56s176.64-20.48 245.76-61.44c69.12-40.96 122.88-99.84 158.72-174.080s56.32-161.28 56.32-258.56c0-25.6-7.68-43.52-25.6-58.88zM1431.040 727.040c-56.32-48.64-92.16-115.2-104.96-197.12h614.4c-10.24 81.92-40.96 148.48-92.16 197.12s-115.2 74.24-197.12 74.24c-92.16 0-163.84-25.6-220.16-74.24z" />
<glyph unicode="&#xe90f;" glyph-name="snapchat" d="M767.187 960h-511.187c-140.597 0-256-115.403-256-256.813v-511.187c0-140.597 115.403-256 256-256h511.187c141.41 0 256.813 115.403 256.813 256.813v510.375c0 141.41-115.403 256.813-256.813 256.813zM818.387 279.771c-2.438-4.876-8.127-9.752-17.879-14.629-13.003-6.502-33.321-11.378-60.14-15.441-2.438-0.813-4.876-2.438-6.502-4.876s-2.438-8.127-4.063-15.441l-0.813-4.063c-0.813-3.251-1.625-7.314-2.438-10.565-1.625-4.063-4.063-6.502-8.94-6.502-2.438 0-6.502 0-13.003 1.625-8.94 1.625-20.317 4.063-34.946 4.063-8.94 0-17.067-0.813-25.194-2.438-17.067-3.251-32.508-13.003-48.762-24.381-21.943-15.441-46.324-33.321-83.708-33.321-1.625 0-3.251 0-4.063 0s-0.813 0-1.625 0-1.625 0-1.625 0c-37.384 0-61.765 17.879-84.521 33.321-15.441 10.565-30.070 21.13-47.949 24.381-8.127 1.625-17.067 2.438-25.194 2.438-14.629 0-26.006-2.438-34.133-4.063h-0.813c-4.063-0.813-8.94-1.625-13.003-1.625-4.876 0-8.127 1.625-9.752 6.502-3.251 5.689-4.876 9.752-5.689 13.816l-0.813 2.438c-1.625 6.502-2.438 12.19-4.876 15.441-0.813 2.438-3.251 4.063-5.689 4.063-26.819 4.063-47.137 9.752-60.952 15.441-8.94 4.063-15.441 8.94-17.879 13.816-0.813 1.625-0.813 3.251-0.813 4.063s0 0.813 0 1.625c3.251 3.251 4.876 4.876 7.314 5.689 21.13 3.251 40.635 11.378 57.702 22.756 14.629 8.94 28.444 21.13 40.635 35.759 21.13 24.381 31.695 47.949 33.321 52.013v0.813c5.689 10.565 6.502 20.317 3.251 27.632-6.502 14.629-26.006 21.13-39.822 25.194l-2.438 0.813c-2.438 0.813-4.876 1.625-6.502 2.438-9.752 4.063-17.067 8.127-21.13 12.19-6.502 5.689-7.314 11.378-6.502 14.629 0.813 4.063 4.063 8.94 9.752 12.19 7.314 4.063 17.067 5.689 22.756 2.438 18.692-8.94 34.133-11.378 45.511-5.689 3.251 1.625 4.876 4.876 4.876 8.127 0 4.876-0.813 9.752-0.813 14.629v0.813c-2.438 42.26-5.689 95.086 7.314 125.156 9.752 21.13 21.943 39.010 37.384 53.638 13.003 12.19 27.632 21.943 44.698 29.257 29.257 13.003 56.076 14.629 69.892 14.629h12.19c13.816 0 40.635-1.625 69.892-14.629 17.067-7.314 31.695-17.067 44.698-29.257 15.441-14.629 28.444-32.508 37.384-53.638 13.816-30.070 9.752-82.895 7.314-124.343v-2.438c0-3.251-0.813-5.689-0.813-8.94v-4.063c0-3.251 1.625-6.502 4.876-8.127s7.314-2.438 11.378-2.438c0 0 0.813 0 1.625 0 8.94 0.813 18.692 3.251 29.257 8.127 4.063 1.625 8.127 1.625 9.752 1.625 4.063 0 7.314-0.813 11.378-2.438 8.94-3.251 15.441-9.752 15.441-16.254 0-2.438-0.813-6.502-5.689-11.378s-12.19-8.94-22.756-13.816c-1.625-0.813-4.063-1.625-5.689-1.625l-2.438-0.813c-13.003-4.063-33.321-10.565-39.822-25.194-3.251-7.314-2.438-17.067 3.251-28.444 0-0.813 0-0.813 0.813-1.625 7.314-16.254 47.949-95.898 131.657-109.714 3.251-0.813 5.689-3.251 5.689-7.314 0-1.625-0.813-3.251-0.813-4.063z" />
<glyph unicode="&#xe910;" glyph-name="instagram" d="M747.318 960h-470.636c-152.562 0-276.682-124.12-276.682-276.682v-470.636c0-152.562 124.12-276.682 276.682-276.682h470.636c152.562 0 276.682 124.12 276.682 276.682v470.636c0 152.562-124.12 276.682-276.682 276.682zM941.272 212.682c0-106.946-87.006-193.954-193.954-193.954h-470.636c-106.946 0-193.954 87.006-193.954 193.954v470.636c0 106.946 87.006 193.954 193.954 193.954h470.636c106.946 0 193.954-87.006 193.954-193.954v-470.636zM741.172 483.718c-7.28 49.094-29.678 93.59-64.772 128.684-35.094 35.092-79.59 57.492-128.682 64.77-22.352 3.314-45.014 3.314-67.364 0-60.672-8.998-114.206-41.082-150.744-90.344s-51.708-109.806-42.71-170.474c8.998-60.67 41.082-114.204 90.344-150.744 39.992-29.662 87.412-45.238 136.306-45.238 11.334 0 22.75 0.836 34.166 2.53 60.672 8.998 114.206 41.082 150.744 90.344 36.54 49.26 51.71 109.802 42.712 170.472zM535.582 304.736c-38.81-5.764-77.54 3.946-109.054 27.32s-52.038 57.622-57.792 96.432c-5.756 38.81 3.946 77.54 27.32 109.054 23.376 31.514 57.622 52.038 96.434 57.794 7.148 1.060 14.346 1.59 21.544 1.59s14.398-0.53 21.546-1.592c64.462-9.558 114.196-59.29 123.756-123.754 11.88-80.116-43.634-154.964-123.754-166.844zM800.098 736.098c-7.704 7.702-18.366 12.116-29.25 12.116s-21.546-4.412-29.25-12.116c-7.702-7.704-12.116-18.348-12.116-29.25s4.414-21.546 12.116-29.25c7.704-7.702 18.366-12.116 29.25-12.116s21.546 4.412 29.25 12.116c7.702 7.704 12.116 18.366 12.116 29.25 0 10.886-4.414 21.548-12.116 29.25z" />
</font>
</defs>
</svg>
